<?xml version="1.0" encoding="UTF-8"?>
<!DOCTYPE svg PUBLIC "-//W3C//DTD SVG 1.1//EN" "http://www.w3.org/Graphics/SVG/1.1/DTD/svg11.dtd">
<!-- Creator: CorelDRAW -->
<svg xmlns="http://www.w3.org/2000/svg" xml:space="preserve" width="297mm" height="210mm" style="shape-rendering:geometricPrecision; text-rendering:geometricPrecision; image-rendering:optimizeQuality; fill-rule:evenodd; clip-rule:evenodd" viewBox="0 0 297 210" xmlns:xlink="http://www.w3.org/1999/xlink">
 <defs>
  <style type="text/css">
   <![CDATA[
    .str3 {stroke:#2F3133;stroke-width:0.1}
    .str1 {stroke:black;stroke-width:0.1;stroke-opacity:0.501961}
    .str0 {stroke:black;stroke-width:0.1}
    .str2 {stroke:black;stroke-width:0.5}
    .fil9 {fill:none}
    .fil4 {fill:white}
    .fil2 {fill:#CBE3FF}
    .fil3 {fill:lemonchiffon}
    .fil0 {fill:#D3E9C7}
    .fil1 {fill:#EEE0E6}
    .fil12 {fill:#1F1A17;fill-rule:nonzero}
    .fil10 {fill:#C2C1C1;fill-rule:nonzero}
    .fil11 {fill:white;fill-rule:nonzero}
    .fil8 {fill:black;fill-rule:nonzero}
    .fil6 {fill:#000066;fill-rule:nonzero}
    .fil7 {fill:white;fill-rule:nonzero;fill-opacity:0.501961}
    .fil5 {fill:white;fill-opacity:0.701961}
   ]]>
  </style>
 </defs>
 <g id="Plan_x0020_1">
  <metadata id="CorelCorpID_0Corel-Layer"/>
  <path class="fil0 str0" d="M117.955 153.314l2.351 0.5229c0.9001,0.1388 2.0563,-0.0775 2.8285,0.457 2.4519,1.6975 1.8802,-1.4131 2.3905,-2.632 0.5985,-1.4292 1.9505,-1.9594 3.1935,-2.7416 1.1594,-0.7297 5.1407,-2.9825 5.5293,-4.2403 0.5102,-1.6517 -2.4188,-1.9567 0.146,-4.2404 1.1574,-1.4117 1.5324,-2.1866 1.8248,-4.0941 0.2847,-1.8579 0.8628,-1.7347 2.0803,-2.8878 1.5693,-1.4865 -0.7075,-3.1072 2.2263,-3.1072 2.4961,0 2.6096,-2.1607 2.6096,-4.0393l-0.1278 -1.9374 0 0c0.0581,-0.7175 -0.2224,-2.3029 0.8212,-2.3029 0.9725,0 2.2761,0.0711 3.0475,-0.6215 1.0109,-0.9078 1.2041,-2.3536 2.0803,-3.3996 0.5069,-0.6053 1.1073,-0.7981 1.8614,-0.9138 0.9025,-0.1386 1.5377,-0.6956 2.354,-0.9139l2.4088 -1.9557 0 0c0.6715,2.0239 2.1175,4.6186 3.9052,5.8853 1.7621,1.2484 4.5517,2.0896 5.876,3.7469l1.033 2.502 0 0c-0.0164,0.3455 0.0167,0.7149 0.1234,1.1308 0.5947,2.3188 1.5301,3.569 2.9484,5.46 0.3961,0.5282 11.5796,10.5365 10.192,12.8492l0 0c-0.7974,2.7466 -3.0515,6.2016 -5.3144,7.8988 -2.8,2.0999 -3.8823,0.5039 -6.188,-0.9464 -2.0035,-1.2601 -1.9438,-2.8645 -4.4772,-1.7108 -3.1622,1.4401 -11.2301,3.9322 -12.9584,7.3892 -5.0963,4.2469 2.5322,5.3587 3.094,9.5732 0.9083,6.8132 -1.6191,5.1698 -6.0788,8.736 -3.5002,2.799 -7.6461,1.9292 -11.7572,1.9292 -1.4262,0 -3.4134,1.8176 -4.368,0.7644 -0.8252,-0.9106 -1.4282,-3.1425 -1.5652,-4.3316 -0.312,-2.709 -1.4934,-3.1934 -2.6572,-5.3872 -0.6224,-1.1731 -5.2821,0.5273 -7.1344,-1.7108 -0.7558,-1.7005 -0.7959,-3.0418 -1.3468,-4.6956 -0.478,-1.4352 -2.3296,-3.0111 -2.3296,-4.4044 0,-1.7219 0.9226,-3.7825 1.378,-5.6306l0 0z"/>
  <path class="fil0 str0" d="M135.233 109.643c1.1043,-0.7159 1.8871,-2.2093 2.719,-3.2169 0.3362,-0.4071 0.8157,-1.6164 1.4963,-1.3159 0.7189,0.3173 1.2582,0.8096 2.0621,1.0052 1.5557,0.3784 2.9376,0.1388 4.3248,1.1149 2.4965,1.7571 6.279,4.7291 9.2884,4.9167l0 0 -0.1277 -0.8225c-0.2052,-1.6487 0.0547,-3.4067 0.0547,-5.0811 0,-1.0697 0.0921,-4.1722 -0.5474,-4.9349l0 0c-0.6761,0.3371 -1.3297,0.7722 -2.0256,1.0418 -0.8014,0.3104 -1.472,0.2041 -2.281,0.0731 -0.6843,-0.0568 -1.2439,-0.7322 -1.9708,-0.329 -0.8727,0.4842 -1.7678,0.4193 -2.7008,0.201 -1.8134,-0.4245 -3.1063,0.4171 -4.5803,-0.9321 -0.6479,-0.5931 -0.9699,-1.701 -1.9343,-1.9557 -1.2981,-0.3427 -3.1373,-0.7577 -4.4344,-0.1279l0 0c-0.0324,0.3799 -0.0373,0.7271 0.1095,1.0783 0.1477,0.3531 0.4812,0.6641 0.4015,1.0784 -0.0914,0.4748 -0.3621,1.0384 -0.5657,1.4988l-0.0913 0.4934 0 0c0,0.5103 -0.1164,1.1334 -0.2372,1.6267 -0.4271,1.7447 0.7345,3.0509 1.0402,4.5877l0 0z"/>
  <path class="fil1 str0" d="M143.007 124.374c0.0581,-0.7175 -0.2224,-2.3029 0.8212,-2.3029 0.9725,0 2.2761,0.0711 3.0475,-0.6215 1.0109,-0.9078 1.2041,-2.3536 2.0803,-3.3996 0.5069,-0.6053 1.1073,-0.7981 1.8614,-0.9138 0.9025,-0.1386 1.5377,-0.6956 2.354,-0.9139l2.4088 -1.9557 0 0 -0.4563 -2.1201 0 0c-3.0094,-0.1876 -6.7919,-3.1596 -9.2884,-4.9167 -1.3872,-0.9761 -2.7691,-0.7365 -4.3248,-1.1149 -0.8039,-0.1956 -1.3432,-0.6879 -2.0621,-1.0052 -0.6806,-0.3005 -1.1601,0.9088 -1.4963,1.3159 -0.8319,1.0076 -1.6147,2.501 -2.719,3.2169l0 0c-0.3868,1.327 -4.6026,8.2828 -4.0235,8.8619 1.4567,1.4567 2.8791,2.9104 4.0768,4.55 0.6089,0.8337 4.904,0.9886 6.0424,1.092l1.678 0.2276 0 0z"/>
  <path class="fil2 str0" d="M166.395 126.401l-1.033 -2.502c-1.3243,-1.6573 -4.1139,-2.4985 -5.876,-3.7469 -1.7877,-1.2667 -3.2337,-3.8614 -3.9052,-5.8853l0 0 -0.4563 -2.1201 0 0 -0.1277 -0.8225c-0.2052,-1.6487 0.0547,-3.4067 0.0547,-5.0811 0,-1.0697 0.0921,-4.1722 -0.5474,-4.9349l0 0 -2.1168 -2.1933 0 0c3.8611,-2.5835 8.6805,-2.6432 13.1205,-3.2351 1.4571,-0.1942 3.4407,0.0644 4.7811,-0.4387l3.3034 -0.1365 0 0c-0.3118,0.6163 -0.4894,1.2956 -0.5947,2.0516l-0.6188 4.4408c-4.5476,5.0349 6.2096,7.4581 6.8796,11.6116 0.5421,3.3602 -3.8201,4.399 -6.188,5.46 -2.2779,1.0208 -4.9203,2.9246 -6.0424,5.1688 -0.2772,0.8593 -0.5942,1.5451 -0.633,2.3636l0 0z"/>
  <path class="fil3 str0" d="M134.43 103.428c0,0.5103 -0.1164,1.1334 -0.2372,1.6267 -0.4271,1.7447 0.7345,3.0509 1.0402,4.5877l0 0c-0.3868,1.327 -4.6026,8.2828 -4.0235,8.8619 1.4567,1.4567 2.8791,2.9104 4.0768,4.55 0.6089,0.8337 4.904,0.9886 6.0424,1.092l1.678 0.2276 0 0 0.1278 1.9374c0,1.8786 -0.1135,4.0393 -2.6096,4.0393 -2.9338,0 -0.657,1.6207 -2.2263,3.1072 -1.2175,1.1531 -1.7956,1.0299 -2.0803,2.8878 -0.2924,1.9075 -0.6674,2.6824 -1.8248,4.0941 -2.5648,2.2837 0.3642,2.5887 -0.146,4.2404 -0.3886,1.2578 -4.3699,3.5106 -5.5293,4.2403 -1.243,0.7822 -2.595,1.3124 -3.1935,2.7416 -0.5103,1.2189 0.0614,4.3295 -2.3905,2.632 -0.7722,-0.5345 -1.9284,-0.3182 -2.8285,-0.457l-2.351 -0.5229 0 0c0.2145,-0.8709 0.3254,-1.6948 0.1872,-2.4138 -0.4418,-2.2972 -2.5495,-2.0156 -4.5136,-2.548 -2.6231,-0.7109 -0.6363,-4.6207 -3.2032,-4.7684 -0.8342,-0.048 -4.5467,-0.8458 -4.9504,-0.4732 -1.8964,1.7508 -1.3489,2.8181 -4.2588,1.6016 -2.5219,-1.0544 -1.5427,-1.6174 -3.1304,-3.4216 -2.9935,-1.7105 -10.9564,-10.3633 -10.9564,-2.4752 0,1.836 2.8418,1.5443 3.276,2.8028 0.9345,2.709 -3.7263,1.4924 -4.5864,1.4924 -1.7484,0 -1.1886,1.6548 -3.3488,0.6916 -1.3311,-0.5934 -1.995,-2.0925 -3.276,-1.092l-4.9868 3.8948c-2.1843,1.706 -4.2214,0.2189 -6.188,-0.7644 -2.2468,-1.1233 -3.9461,1.7634 -5.3144,-1.3832 -0.3912,-0.8995 -2.0419,-0.4035 -2.8392,-0.182 -2.0431,0.5676 -2.7052,6.8565 -4.9868,2.2932 -1.6345,-3.2691 2.7211,-3.7687 -1.274,-7.3892 -0.6921,-0.6921 -1.793,-1.0157 -2.548,-1.82 -0.6332,-0.6744 -0.9015,-1.7977 -1.4196,-2.548 -1.7189,-2.4897 -2.689,-1.5022 -4.732,-3.0212 -1.4042,-1.0439 -2.5511,-9.6221 -1.3104,-10.01 1.8123,-0.5667 6.6063,0.9506 7.3164,-1.4924 0.9706,-3.3388 3.4359,-6.6917 4.0404,-9.9736 0.7109,-1.4218 1.0684,-3.488 3.0212,-2.5116 1.5128,0.7563 2.9441,1.8743 4.1496,-0.0728 2.5968,-4.1946 3.7201,2.8028 6.5156,2.8028 1.3565,0 3.5307,-2.8393 2.6208,-3.7492 -1.2362,-1.2362 -6.4146,-4.543 -4.9504,-7.0252 0.4902,-0.8312 1.967,-3.2673 2.6936,-3.64 1.0797,-0.5539 5.4602,-0.0732 5.8968,-0.9464l0 0 1.9027 2.0053c0.953,0.9193 2.272,0.8497 3.376,1.4622 0.7705,0.4274 1.7628,1.4175 2.6095,1.5353 0.9992,0.1391 1.3441,-1.1262 2.2993,-1.0784 1.0228,0.0511 2.4433,2.3743 2.8467,3.2168 1.0717,2.2385 0.2289,4.4679 0.8212,6.653 0.3655,1.3483 2.1823,0.0478 3.23,0.0914 0.7132,0.0296 0.5545,1.4392 1.4234,1.9922 0.8465,0.5032 1.527,0.1197 1.9161,1.188 0.8884,2.4396 0.3728,2.9335 3.2117,2.5589 1.5357,-0.2027 2.7511,-1.2602 3.8869,-2.2299 0.8013,-0.684 1.9388,-0.3121 2.8468,-0.2193 1.5355,0.1571 4.4473,-0.9683 5.73,-0.3473 1.0119,0.4898 1.9508,1.8811 2.7737,2.7051 1.0714,0.7149 1.3595,1.3085 2.5183,-0.1097 0.6757,-0.8268 2.8902,-5.209 3.7227,-5.209 1.8095,0 2.1455,-1.7867 3.1205,-2.9427 0.6526,-0.7739 1.3648,-1.1404 2.0803,-1.9008 1.7161,-1.8235 1.6135,-1.939 4.1241,-1.4257 1.7157,0.3508 3.3415,0.3107 5.0914,0.3107l0 0z"/>
  <path class="fil1 str0" d="M77.4474 86.7316l2.037 0.0093c2.4306,0.2354 3.8272,3.5565 5.876,4.6607 2.589,1.3955 1.6818,1.0149 3.7957,-0.6579 0.6719,-0.5316 1.0663,-2.4611 1.5329,-2.5954 2.878,-0.8282 4.2877,0.4776 6.4052,1.8643 1.5925,1.043 5.8898,1.6632 7.8285,1.6632 0.9944,0.2912 2.4124,0.2672 3.4307,0.1279 2.1626,-0.2958 2.263,-2.1089 3.9782,0.1828 1.5713,2.0996 8.4672,0.7659 11.0038,1.9191l8.3213 3.7835 0 0 1.0219 -1.0784c0.3684,-0.6319 0.8856,-1.6726 0.8577,-2.4126 -0.0312,-0.8258 -0.7716,-2.1653 0.1277,-2.5954 0.7549,-0.3609 1.6056,-0.541 2.3358,-0.9504 1.3091,-0.7339 1.0548,0.469 2.0621,0.6945 2.4853,0.5563 6.8067,-4.7511 6.8067,-7.2196 0,-1.2346 -0.3194,-2.3137 -1.2774,-3.1254 -1.1262,-0.9544 -2.5721,-0.2727 -3.7227,-1.4256 -0.7307,-0.732 -1.7927,-0.6689 -2.719,-0.8956 -0.8515,-0.2083 -2.4434,-2.1681 -3.23,-2.7964 -1.6475,-1.3161 -2.9855,-2.5012 -4.8541,-3.5276 -0.7683,-0.4221 2.9522,-2.7898 3.5402,-3.3082 0.4707,-0.5378 0.8102,-1.9944 0.5292,-2.6685 -0.5161,-1.2383 0.381,-1.1332 1.4781,-1.1332 1.7073,0 5.2858,-0.0972 5.3651,-2.5405 0.0635,-1.9588 0.1569,-1.7734 2.0073,-1.9191l1.6376 -0.7372 0 0c-0.2366,-0.0037 -0.4787,-0.0039 -0.7285,-0.0039 -1.5028,0 -0.7559,-3.174 -1.9656,-4.2588 -0.7614,-0.6827 -1.6164,-1.9619 -0.91,-2.912 0.8082,-1.0872 3.4079,-0.1452 4.732,-1.3104 0.6268,-0.235 0.9418,-0.9502 1.2012,-1.5288 0.2721,-0.6071 0.0728,-1.4006 0.0728,-2.0748 0,-0.5407 -0.0613,-0.9842 -0.2548,-1.456 -0.2662,-0.6494 -1.0161,-1.2726 -1.7044,-1.4001 -1.0576,-0.3859 -3.1586,0.2152 -3.6314,-1.0236 -0.3731,-0.9778 -0.657,-2.3557 -0.657,-3.3996 0,-1.0562 -0.7247,-0.4619 -1.3868,-0.8955 -0.4747,-0.311 -0.8905,-1.6147 -0.7373,-2.1329l0 0c-0.5978,-1.6054 -3.2237,-0.7804 -5.0963,0.9893 -1.3718,1.2964 -4.6467,4.9581 -6.4428,5.096 -3.9125,0.3004 -0.6681,-7.7629 -3.5672,-8.2628 -1.8709,-0.3225 -1.5613,1.1739 -3.094,1.2376 -1.2864,0.0534 -2.3916,-0.9344 -2.9848,-1.9656 -0.9646,-1.6765 -2.1296,-1.2263 -3.9676,-1.456 -0.4771,-0.0954 -0.8095,-0.629 -1.3104,-0.6916 -0.9465,-1.8931 -1.6649,-2.8843 -3.7128,-2.7664 -1.0418,0.0599 -1.0881,3.0783 -1.3104,3.9676 -1.7571,0.4392 -3.7733,-0.5114 -5.0596,0.8736 -1.0029,1.08 -2.5767,4.2376 -2.9484,5.6784 -1.9487,7.5542 -2.2257,3.3011 -7.5348,1.8928 -1.0179,-0.27 -6.5329,0.9235 -7.0616,1.82 -0.6204,1.0517 -0.124,4.3011 -2.2932,3.8584 -0.9999,-0.2041 -1.8011,-2.0384 -3.2032,-2.0384 -0.2147,0.6443 -1.6591,4.6829 -2.3296,4.4408 -1.8108,-0.6537 -2.5898,-1.4655 -3.1668,1.4196 -0.8384,0.4192 -1.5882,4.154 -0.5824,4.6956 1.912,1.3145 0.6492,0.6603 1.2376,2.366 0.1972,0.5715 -0.632,1.7854 -0.91,2.2204 -1.0955,1.7147 2.2423,2.7367 1.638,4.55 -0.3974,1.1923 -1.8616,1.6072 -2.2932,2.8028 -0.3324,0.9207 3.2661,3.6318 3.6036,5.2416 0.534,2.5474 0.6849,3.8247 -0.5824,6.0424 -2.7758,2.4427 -0.9015,4.3906 1.9656,5.278 0.947,0.2931 1.0556,0.9989 0.801,1.788l0 0z"/>
  <path class="fil0 str0" d="M143.623 60.0499c4.9674,0.0766 2.4461,1.6645 2.9115,3.5269 0.3978,0.0497 2.1838,0.2537 2.2932,0.6916 0.2637,0.0659 0.2553,1.5165 0.3276,1.82 0.8312,3.4896 2.0996,3.719 5.278,4.5136 0,0.3842 0.4004,0.9659 0.4004,1.5288 -2.141,6.6371 5.5781,3.8677 8.008,7.3892 0.4054,0.5875 0.2974,10.2293 2.912,6.006 1.8812,-3.0386 4.9633,-2.1112 8.2628,-2.1112 0.9672,0 -0.6552,3.2381 -0.6552,4.5136 0,2.8779 3.9256,3.5582 1.274,6.006 -0.4558,0.4209 -0.7929,0.8752 -1.0433,1.37l0 0 -3.3034 0.1365c-1.3404,0.5031 -3.324,0.2445 -4.7811,0.4387 -4.44,0.5919 -9.2594,0.6516 -13.1205,3.2351l0 0 -1.0219 -1.0235c-0.6234,-0.9831 -1.6347,-1.6695 -2.1168,-2.7599 -0.3662,-0.8284 -0.9112,-2.1329 -0.7664,-3.0523 -0.4363,-3.9463 0.6865,-8.1778 1.6423,-11.9717 0.2334,-0.9263 0.8875,-2.0219 1.0037,-2.9244 0,-1.7252 0.5359,-2.7376 -0.7847,-4.2221 -0.8545,-0.9607 -3.2083,-0.7916 -3.3577,-1.9191 -0.1119,-0.8444 -0.2696,-1.9143 -0.6205,-2.705 -0.5308,-1.1958 -0.9371,-2.4575 -1.3321,-3.7104l-1.4099 -4.7764 0 0z"/>
  <path class="fil3 str0" d="M143.623 60.0499l-1.6376 0.7372c-1.8504,0.1457 -1.9438,-0.0397 -2.0073,1.9191 -0.0793,2.4433 -3.6578,2.5405 -5.3651,2.5405 -1.0971,0 -1.9942,-0.1051 -1.4781,1.1332 0.281,0.6741 -0.0585,2.1307 -0.5292,2.6685 -0.588,0.5184 -4.3085,2.8861 -3.5402,3.3082 1.8686,1.0264 3.2066,2.2115 4.8541,3.5276 0.7866,0.6283 2.3785,2.5881 3.23,2.7964 0.9263,0.2267 1.9883,0.1636 2.719,0.8956 1.1506,1.1529 2.5965,0.4712 3.7227,1.4256 0.958,0.8117 1.2774,1.8908 1.2774,3.1254 0,2.4685 -4.3214,7.7759 -6.8067,7.2196 -1.0073,-0.2255 -0.753,-1.4284 -2.0621,-0.6945 -0.7302,0.4094 -1.5809,0.5895 -2.3358,0.9504 -0.8993,0.4301 -0.1589,1.7696 -0.1277,2.5954 0.0279,0.74 -0.4893,1.7807 -0.8577,2.4126l-1.0219 1.0784 0 0c-0.3902,0.6843 -0.5026,2.7691 0.2921,3.1802 0.5581,0.2886 0.934,0.2493 1.4233,-0.1645 0.2354,-0.1992 0.3859,-0.5042 0.584,-0.7494 0.1976,-0.2448 0.4199,-0.4468 0.6204,-0.6762l0 0c1.2971,-0.6298 3.1363,-0.2148 4.4344,0.1279 0.9644,0.2547 1.2864,1.3626 1.9343,1.9557 1.474,1.3492 2.7669,0.5076 4.5803,0.9321 0.933,0.2183 1.8281,0.2832 2.7008,-0.201 0.7269,-0.4032 1.2865,0.2722 1.9708,0.329 0.809,0.131 1.4796,0.2373 2.281,-0.0731 0.6959,-0.2696 1.3495,-0.7047 2.0256,-1.0418l0 0 -2.1168 -2.1933 0 0 -1.0219 -1.0235c-0.6234,-0.9831 -1.6347,-1.6695 -2.1168,-2.7599 -0.3662,-0.8284 -0.9112,-2.1329 -0.7664,-3.0523 -0.4363,-3.9463 0.6865,-8.1778 1.6423,-11.9717 0.2334,-0.9263 0.8875,-2.0219 1.0037,-2.9244 0,-1.7252 0.5359,-2.7376 -0.7847,-4.2221 -0.8545,-0.9607 -3.2083,-0.7916 -3.3577,-1.9191 -0.1119,-0.8444 -0.2696,-1.9143 -0.6205,-2.705 -0.5308,-1.1958 -0.9371,-2.4575 -1.3321,-3.7104l-1.4099 -4.7764 0 0z"/>
  <path class="fil2 str0" d="M77.4474 86.7316l2.037 0.0093c2.4306,0.2354 3.8272,3.5565 5.876,4.6607 2.589,1.3955 1.6818,1.0149 3.7957,-0.6579 0.6719,-0.5316 1.0663,-2.4611 1.5329,-2.5954 2.878,-0.8282 4.2877,0.4776 6.4052,1.8643 1.5925,1.043 5.8898,1.6632 7.8285,1.6632 0.9944,0.2912 2.4124,0.2672 3.4307,0.1279 2.1626,-0.2958 2.263,-2.1089 3.9782,0.1828 1.5713,2.0996 8.4672,0.7659 11.0038,1.9191l8.3213 3.7835 0 0c-0.3902,0.6843 -0.5026,2.7691 0.2921,3.1802 0.5581,0.2886 0.934,0.2493 1.4233,-0.1645 0.2354,-0.1992 0.3859,-0.5042 0.584,-0.7494 0.1976,-0.2448 0.4199,-0.4468 0.6204,-0.6762l0 0c-0.0324,0.3799 -0.0373,0.7271 0.1095,1.0783 0.1477,0.3531 0.4812,0.6641 0.4015,1.0784 -0.0914,0.4748 -0.3621,1.0384 -0.5657,1.4988l-0.0913 0.4934 0 0c-1.7499,0 -3.3757,0.0401 -5.0914,-0.3107 -2.5106,-0.5133 -2.408,-0.3978 -4.1241,1.4257 -0.7155,0.7604 -1.4277,1.1269 -2.0803,1.9008 -0.975,1.156 -1.311,2.9427 -3.1205,2.9427 -0.8325,0 -3.047,4.3822 -3.7227,5.209 -1.1588,1.4182 -1.4469,0.8246 -2.5183,0.1097 -0.8229,-0.824 -1.7618,-2.2153 -2.7737,-2.7051 -1.2827,-0.621 -4.1945,0.5044 -5.73,0.3473 -0.908,-0.0928 -2.0455,-0.4647 -2.8468,0.2193 -1.1358,0.9697 -2.3512,2.0272 -3.8869,2.2299 -2.8389,0.3746 -2.3233,-0.1193 -3.2117,-2.5589 -0.3891,-1.0683 -1.0696,-0.6848 -1.9161,-1.188 -0.8689,-0.553 -0.7102,-1.9626 -1.4234,-1.9922 -1.0477,-0.0436 -2.8645,1.2569 -3.23,-0.0914 -0.5923,-2.1851 0.2505,-4.4145 -0.8212,-6.653 -0.4034,-0.8425 -1.8239,-3.1657 -2.8467,-3.2168 -0.9552,-0.0478 -1.3001,1.2175 -2.2993,1.0784 -0.8467,-0.1178 -1.839,-1.1079 -2.6095,-1.5353 -1.104,-0.6125 -2.423,-0.5429 -3.376,-1.4622l-1.9027 -2.0053 0 0c0.5871,-1.1742 -0.4777,-4.324 0.5096,-5.3872 0.3603,-0.3879 1.6415,-1.8221 2.0386,-3.0532l0 0z"/>
  <path class="fil4 str0" d="M179.658 145.841c-0.7974,2.7466 -3.0515,6.2016 -5.3144,7.8988 -2.8,2.0999 -3.8823,0.5039 -6.188,-0.9464 -2.0035,-1.2601 -1.9438,-2.8645 -4.4772,-1.7108 -3.1622,1.4401 -11.2301,3.9322 -12.9584,7.3892 -5.0963,4.2469 2.5322,5.3587 3.094,9.5732 0.9083,6.8132 -1.6191,5.1698 -6.0788,8.736 -3.5002,2.799 -7.6461,1.9292 -11.7572,1.9292 -1.4262,0 -3.4134,1.8176 -4.368,0.7644 -0.8252,-0.9106 -1.4282,-3.1425 -1.5652,-4.3316 -0.312,-2.709 -1.4934,-3.1934 -2.6572,-5.3872 -0.6224,-1.1731 -5.2821,0.5273 -7.1344,-1.7108 -0.7558,-1.7005 -0.7959,-3.0418 -1.3468,-4.6956 -0.478,-1.4352 -2.3296,-3.0111 -2.3296,-4.4044 0,-1.7219 0.9226,-3.7825 1.378,-5.6306 0.2145,-0.8709 0.3254,-1.6948 0.1872,-2.4138 -0.4418,-2.2972 -2.5495,-2.0156 -4.5136,-2.548 -2.6231,-0.7109 -0.6363,-4.6207 -3.2032,-4.7684 -0.8342,-0.048 -4.5467,-0.8458 -4.9504,-0.4732 -1.8964,1.7508 -1.3489,2.8181 -4.2588,1.6016 -2.5219,-1.0544 -1.5427,-1.6174 -3.1304,-3.4216 -2.9935,-1.7105 -10.9564,-10.3633 -10.9564,-2.4752 0,1.836 2.8418,1.5443 3.276,2.8028 0.9345,2.709 -3.7263,1.4924 -4.5864,1.4924 -1.7484,0 -1.1886,1.6548 -3.3488,0.6916 -1.3311,-0.5934 -1.995,-2.0925 -3.276,-1.092l-4.9868 3.8948c-2.1843,1.706 -4.2214,0.2189 -6.188,-0.7644 -2.2468,-1.1233 -3.9461,1.7634 -5.3144,-1.3832 -0.3912,-0.8995 -2.0419,-0.4035 -2.8392,-0.182 -2.0431,0.5676 -2.7052,6.8565 -4.9868,2.2932 -1.6345,-3.2691 2.7211,-3.7687 -1.274,-7.3892 -0.6921,-0.6921 -1.793,-1.0157 -2.548,-1.82 -0.6332,-0.6744 -0.9015,-1.7977 -1.4196,-2.548 -1.7189,-2.4897 -2.689,-1.5022 -4.732,-3.0212 -1.4042,-1.0439 -2.5511,-9.6221 -1.3104,-10.01 1.8123,-0.5667 6.6063,0.9506 7.3164,-1.4924 0.9706,-3.3388 3.4359,-6.6917 4.0404,-9.9736 0.7109,-1.4218 1.0684,-3.488 3.0212,-2.5116 1.5128,0.7563 2.9441,1.8743 4.1496,-0.0728 2.5968,-4.1946 3.7201,2.8028 6.5156,2.8028 1.3565,0 3.5307,-2.8393 2.6208,-3.7492 -1.2362,-1.2362 -6.4146,-4.543 -4.9504,-7.0252 0.4902,-0.8312 1.967,-3.2673 2.6936,-3.64 1.0797,-0.5539 5.4602,-0.0732 5.8968,-0.9464 0.5871,-1.1742 -0.4777,-4.324 0.5096,-5.3872 0.3603,-0.3879 1.6415,-1.8221 2.0386,-3.0532 0.2546,-0.7891 0.146,-1.4949 -0.801,-1.788 -2.8671,-0.8874 -4.7414,-2.8353 -1.9656,-5.278 1.2673,-2.2177 1.1164,-3.495 0.5824,-6.0424 -0.3375,-1.6098 -3.936,-4.3209 -3.6036,-5.2416 0.4316,-1.1956 1.8958,-1.6105 2.2932,-2.8028 0.6043,-1.8133 -2.7335,-2.8353 -1.638,-4.55 0.278,-0.435 1.1072,-1.6489 0.91,-2.2204 -0.5884,-1.7057 0.6744,-1.0515 -1.2376,-2.366 -1.0058,-0.5416 -0.256,-4.2764 0.5824,-4.6956 0.577,-2.8851 1.356,-2.0733 3.1668,-1.4196 0.6705,0.2421 2.1149,-3.7965 2.3296,-4.4408 1.4021,0 2.2033,1.8343 3.2032,2.0384 2.1692,0.4427 1.6728,-2.8067 2.2932,-3.8584 0.5287,-0.8965 6.0437,-2.09 7.0616,-1.82 5.3091,1.4083 5.5861,5.6614 7.5348,-1.8928 0.3717,-1.4408 1.9455,-4.5984 2.9484,-5.6784 1.2863,-1.385 3.3025,-0.4344 5.0596,-0.8736 0.2223,-0.8893 0.2686,-3.9077 1.3104,-3.9676 2.0479,-0.1179 2.7663,0.8733 3.7128,2.7664 0.5009,0.0626 0.8333,0.5962 1.3104,0.6916 1.838,0.2297 3.003,-0.2205 3.9676,1.456 0.5932,1.0312 1.6984,2.019 2.9848,1.9656 1.5327,-0.0637 1.2231,-1.5601 3.094,-1.2376 2.8991,0.4999 -0.3453,8.5632 3.5672,8.2628 1.7961,-0.1379 5.071,-3.7996 6.4428,-5.096 1.8726,-1.7697 4.4985,-2.5947 5.0963,-0.9893l0 0c-0.1532,0.5182 0.2626,1.8219 0.7373,2.1329 0.6621,0.4336 1.3868,-0.1607 1.3868,0.8955 0,1.0439 0.2839,2.4218 0.657,3.3996 0.4728,1.2388 2.5738,0.6377 3.6314,1.0236 0.6883,0.1275 1.4382,0.7507 1.7044,1.4001 0.1935,0.4718 0.2548,0.9153 0.2548,1.456 0,0.6742 0.1993,1.4677 -0.0728,2.0748 -0.2594,0.5786 -0.5744,1.2938 -1.2012,1.5288 -1.3241,1.1652 -3.9238,0.2232 -4.732,1.3104 -0.7064,0.9501 0.1486,2.2293 0.91,2.912 1.2097,1.0848 0.4628,4.2588 1.9656,4.2588 0.2498,0 0.4919,0.0002 0.7285,0.0039 4.9674,0.0766 2.4461,1.6645 2.9115,3.5269 0.3978,0.0497 2.1838,0.2537 2.2932,0.6916 0.2637,0.0659 0.2553,1.5165 0.3276,1.82 0.8312,3.4896 2.0996,3.719 5.278,4.5136 0,0.3842 0.4004,0.9659 0.4004,1.5288 -2.141,6.6371 5.5781,3.8677 8.008,7.3892 0.4054,0.5875 0.2974,10.2293 2.912,6.006 1.8812,-3.0386 4.9633,-2.1112 8.2628,-2.1112 0.9672,0 -0.6552,3.2381 -0.6552,4.5136 0,2.8779 3.9256,3.5582 1.274,6.006 -1.0236,0.9451 -1.4482,2.0587 -1.638,3.4216l-0.6188 4.4408c-4.5476,5.0349 6.2096,7.4581 6.8796,11.6116 0.5421,3.3602 -3.8201,4.399 -6.188,5.46 -2.2779,1.0208 -4.9203,2.9246 -6.0424,5.1688 -0.2772,0.8593 -0.5942,1.5451 -0.633,2.3636 -0.0164,0.3455 0.0167,0.7149 0.1234,1.1308 0.5947,2.3188 1.5301,3.569 2.9484,5.46 0.3961,0.5282 11.5796,10.5365 10.192,12.8492l0 0zm-169.658 -135.841l209.418 0 0 190 -209.418 0 0 -190z"/>
  <path class="fil5" d="M100.601 68.6849l13.3583 0c0.4698,0 0.8542,0.2636 0.8542,0.5857l0 1.621c0,0.3222 -0.3844,0.5857 -0.8542,0.5857l-13.3583 0c-0.4698,0 -0.8542,-0.2635 -0.8542,-0.5857l0 -1.621c0,-0.3221 0.3844,-0.5857 0.8542,-0.5857z"/>
  <path class="fil5" d="M141.661 75.3441l6.8383 0c0.2405,0 0.4373,0.2636 0.4373,0.5857l0 1.621c0,0.3222 -0.1968,0.5857 -0.4373,0.5857l-6.8383 0c-0.2405,0 -0.4373,-0.2635 -0.4373,-0.5857l0 -1.621c0,-0.3221 0.1968,-0.5857 0.4373,-0.5857z"/>
  <path class="fil5" d="M155.423 88.6977l12.806 0c0.4504,0 0.8189,0.2636 0.8189,0.5857l0 1.621c0,0.3222 -0.3685,0.5857 -0.8189,0.5857l-12.806 0c-0.4504,0 -0.8189,-0.2635 -0.8189,-0.5857l0 -1.621c0,-0.3221 0.3685,-0.5857 0.8189,-0.5857z"/>
  <path class="fil5" d="M141.258 102.745l8.9848 0c0.316,0 0.5745,0.2636 0.5745,0.5857l0 1.621c0,0.3222 -0.2585,0.5857 -0.5745,0.5857l-8.9848 0c-0.316,0 -0.5745,-0.2635 -0.5745,-0.5857l0 -1.621c0,-0.3221 0.2585,-0.5857 0.5745,-0.5857z"/>
  <path class="fil5" d="M162.083 108.888l5.8786 0c0.2067,0 0.3759,0.2636 0.3759,0.5857l0 1.621c0,0.3222 -0.1692,0.5857 -0.3759,0.5857l-5.8786 0c-0.2067,0 -0.3759,-0.2635 -0.3759,-0.5857l0 -1.621c0,-0.3221 0.1692,-0.5857 0.3759,-0.5857z"/>
  <path class="fil5" d="M136.99 113.016l12.5287 0c0.4406,0 0.8011,0.2636 0.8011,0.5857l0 1.621c0,0.3222 -0.3605,0.5857 -0.8011,0.5857l-12.5287 0c-0.4406,0 -0.8011,-0.2635 -0.8011,-0.5857l0 -1.621c0,-0.3221 0.3605,-0.5857 0.8011,-0.5857z"/>
  <path class="fil5" d="M90.8722 124.447l13.7596 0c0.4839,0 0.8798,0.2636 0.8798,0.5857l0 1.621c0,0.3222 -0.3959,0.5857 -0.8798,0.5857l-13.7596 0c-0.4839,0 -0.8798,-0.2635 -0.8798,-0.5857l0 -1.621c0,-0.3221 0.3959,-0.5857 0.8798,-0.5857z"/>
  <path class="fil5" d="M141.661 145.142l7.1807 0c0.2526,0 0.4592,0.2636 0.4592,0.5857l0 1.621c0,0.3222 -0.2066,0.5857 -0.4592,0.5857l-7.1807 0c-0.2526,0 -0.4592,-0.2635 -0.4592,-0.5857l0 -1.621c0,-0.3221 0.2066,-0.5857 0.4592,-0.5857z"/>
  <path class="fil6" d="M142.73 104.408l0.2676 0.0372c-0.0846,0.2333 -0.2079,0.4097 -0.3697,0.5291 -0.1613,0.1195 -0.3429,0.1792 -0.5442,0.1792 -0.2451,0 -0.4398,-0.0748 -0.5837,-0.2243 -0.1435,-0.1501 -0.2155,-0.3646 -0.2155,-0.6435 0,-0.3641 0.1092,-0.6651 0.3279,-0.9026 0.1947,-0.2126 0.437,-0.3185 0.7262,-0.3185 0.2141,0 0.3876,0.0574 0.5203,0.1722 0.1326,0.1148 0.2098,0.269 0.2309,0.4628l-0.2521 0.0236c-0.0268,-0.1459 -0.0818,-0.255 -0.1646,-0.3274 -0.0833,-0.072 -0.1905,-0.1082 -0.3218,-0.1082 -0.2474,0 -0.4473,0.1101 -0.5997,0.3297 -0.1321,0.1891 -0.1985,0.4139 -0.1985,0.6736 0,0.2079 0.0513,0.3664 0.1529,0.4755 0.1021,0.1092 0.2347,0.1642 0.3984,0.1642 0.1397,0 0.2662,-0.0456 0.3791,-0.1364 0.1129,-0.0913 0.1952,-0.2197 0.2465,-0.3862z"/>
  <path id="1" class="fil6" d="M144.235 104.622l0.2427 0.0249c-0.0348,0.1204 -0.1152,0.2347 -0.2404,0.3433 -0.1255,0.1082 -0.2751,0.1623 -0.4487,0.1623 -0.1082,0 -0.2079,-0.0249 -0.2982,-0.0748 -0.0903,-0.0503 -0.1595,-0.1232 -0.207,-0.2187 -0.047,-0.0955 -0.0705,-0.2041 -0.0705,-0.3264 0,-0.1599 0.0367,-0.3147 0.1105,-0.4652 0.0743,-0.1501 0.1698,-0.2615 0.2874,-0.3349 0.1176,-0.0729 0.2451,-0.1096 0.382,-0.1096 0.1745,0 0.3137,0.0546 0.4181,0.1627 0.1044,0.1087 0.1562,0.2564 0.1562,0.4436 0,0.072 -0.0061,0.1453 -0.0193,0.2206l-1.0776 0c-0.0033,0.0287 -0.0052,0.0541 -0.0052,0.0771 0,0.1369 0.0315,0.2413 0.0941,0.3138 0.063,0.0719 0.1401,0.1082 0.2309,0.1082 0.0856,0 0.1694,-0.0283 0.2521,-0.0842 0.0828,-0.056 0.1473,-0.1369 0.1929,-0.2427zm-0.7248 -0.3622l0.8212 0c0.001,-0.0259 0.0014,-0.0442 0.0014,-0.0551 0,-0.1251 -0.031,-0.221 -0.0936,-0.2874 -0.0625,-0.0667 -0.143,-0.1001 -0.2413,-0.1001 -0.1063,0 -0.2036,0.0371 -0.2911,0.1105 -0.088,0.0734 -0.1534,0.1839 -0.1966,0.3321z"/>
  <path id="12" class="fil6" d="M144.73 105.119l0.3062 -1.4633 0.2258 0 -0.0536 0.2549c0.0983,-0.1002 0.19,-0.1735 0.2756,-0.2192 0.0851,-0.0461 0.1726,-0.0691 0.2615,-0.0691 0.1186,0 0.2117,0.0324 0.2794,0.0964 0.0673,0.0645 0.1012,0.1505 0.1012,0.2578 0,0.0545 -0.0118,0.1397 -0.0358,0.2563l-0.1863 0.8862 -0.2493 0 0.1943 -0.9276c0.0193,-0.0898 0.0292,-0.1566 0.0292,-0.1994 0,-0.0489 -0.017,-0.0884 -0.0504,-0.1185 -0.0338,-0.0306 -0.0823,-0.0457 -0.1453,-0.0457 -0.1279,0 -0.2418,0.0461 -0.341,0.1379 -0.0997,0.0917 -0.1731,0.2493 -0.2202,0.4727l-0.1415 0.6806 -0.2498 0z"/>
  <path id="123" class="fil6" d="M146.882 104.917l-0.0409 0.2041c-0.0598,0.0155 -0.1176,0.0235 -0.1741,0.0235 -0.0987,0 -0.1778,-0.0244 -0.2366,-0.0733 -0.0442,-0.0367 -0.0663,-0.0866 -0.0663,-0.1501 0,-0.032 0.0118,-0.1058 0.0358,-0.222l0.1778 -0.85 -0.1971 0 0.04 -0.1928 0.197 0 0.0758 -0.3598 0.2855 -0.1722 -0.112 0.532 0.2456 0 -0.0414 0.1928 -0.2441 0 -0.1694 0.8091c-0.0211,0.1025 -0.0315,0.1641 -0.0315,0.1844 0,0.0296 0.0085,0.0517 0.0254,0.0677 0.0169,0.0155 0.0447,0.023 0.0833,0.023 0.055,0 0.1044,-0.0051 0.1472,-0.0164z"/>
  <path id="1234" class="fil6" d="M147.084 105.119l0.3062 -1.4633 0.2201 0 -0.0616 0.2987c0.0753,-0.1129 0.1487,-0.1966 0.2211,-0.2507 0.072,-0.0541 0.1458,-0.0814 0.2211,-0.0814 0.0494,0 0.1105,0.0179 0.1834,0.0541l-0.1021 0.2314c-0.0432,-0.0315 -0.0907,-0.047 -0.142,-0.047 -0.087,0 -0.1769,0.0489 -0.2686,0.1463 -0.0922,0.0973 -0.1641,0.2723 -0.2164,0.5249l-0.1241 0.587 -0.2371 0z"/>
  <path id="12345" class="fil6" d="M149.01 104.937c-0.0865,0.0743 -0.1693,0.1288 -0.2493,0.1632 -0.0799,0.0348 -0.1655,0.0517 -0.2563,0.0517 -0.135,0 -0.2441,-0.0395 -0.3269,-0.119 -0.0823,-0.0795 -0.1237,-0.1811 -0.1237,-0.3052 0,-0.0819 0.0183,-0.1543 0.0555,-0.2169 0.0371,-0.063 0.0865,-0.1138 0.1481,-0.1519 0.0617,-0.0381 0.1369,-0.0654 0.2263,-0.0819 0.056,-0.0108 0.1623,-0.0197 0.3189,-0.0263 0.1566,-0.0061 0.2691,-0.023 0.3368,-0.0494 0.0193,-0.0682 0.0291,-0.1246 0.0291,-0.1698 0,-0.0578 -0.0211,-0.103 -0.0635,-0.1364 -0.0578,-0.0456 -0.1425,-0.0687 -0.2535,-0.0687 -0.1049,0 -0.1905,0.0231 -0.2568,0.0696 -0.0668,0.0466 -0.1152,0.1125 -0.1453,0.1976l-0.2526 -0.0221c0.0517,-0.1449 0.1331,-0.2559 0.2446,-0.3335 0.1119,-0.0771 0.2525,-0.1157 0.4223,-0.1157 0.1811,0 0.3246,0.0433 0.43,0.1298 0.0809,0.064 0.1213,0.1477 0.1213,0.2507 0,0.0781 -0.0113,0.1684 -0.0343,0.2714l-0.0814 0.3641c-0.0259,0.1157 -0.0386,0.2098 -0.0386,0.2822 0,0.0461 0.0104,0.112 0.0306,0.1985l-0.2526 0c-0.0136,-0.048 -0.023,-0.1082 -0.0287,-0.182zm0.0922 -0.5593c-0.0348,0.0136 -0.0724,0.0245 -0.1124,0.0315 -0.04,0.0075 -0.1068,0.0151 -0.2004,0.0235 -0.1448,0.0127 -0.2474,0.0292 -0.3071,0.049 -0.0598,0.0197 -0.1049,0.0512 -0.135,0.0945 -0.0306,0.0428 -0.0456,0.0908 -0.0456,0.143 0,0.0701 0.0239,0.1275 0.0724,0.1726 0.048,0.0447 0.1166,0.0673 0.206,0.0673 0.0828,0 0.1623,-0.0217 0.2385,-0.0654 0.0762,-0.0437 0.1364,-0.1044 0.1801,-0.1825 0.0443,-0.0781 0.0786,-0.1896 0.1035,-0.3335z"/>
  <polygon id="123456" class="fil6" points="149.574,105.119 149.996,103.099 150.245,103.099 149.823,105.119 "/>
  <path class="fil6" d="M141.771 77.6929l0.4229 -2.0202 0.262 0 0.3405 0.7577c0.1035,0.2319 0.1858,0.4267 0.2465,0.5847 0.0348,0.0917 0.0752,0.2159 0.1213,0.3721 0.025,-0.1703 0.056,-0.3458 0.0936,-0.5268l0.2479 -1.1877 0.2634 0 -0.4214 2.0202 -0.2677 0 -0.5014 -1.167c-0.0893,-0.206 -0.1585,-0.3876 -0.2083,-0.5447 -0.0137,0.1317 -0.0405,0.2926 -0.08,0.484l-0.2559 1.2277 -0.2634 0z"/>
  <path id="1" class="fil6" d="M143.809 77.1374c0,-0.2855 0.0842,-0.5221 0.2521,-0.7093 0.1388,-0.1548 0.3208,-0.2319 0.5457,-0.2319 0.1763,0 0.3189,0.0555 0.4266,0.1656 0.1077,0.11 0.1618,0.2591 0.1618,0.4463 0,0.1684 -0.0339,0.3246 -0.1021,0.4695 -0.0677,0.1444 -0.1646,0.2554 -0.2897,0.3325 -0.1256,0.0772 -0.2578,0.1157 -0.3965,0.1157 -0.1139,0 -0.2174,-0.024 -0.3105,-0.0729 -0.0931,-0.0484 -0.1646,-0.1176 -0.2135,-0.2065 -0.0494,-0.0893 -0.0739,-0.1924 -0.0739,-0.309zm0.2493 -0.0245c0,0.1379 0.0334,0.2423 0.0993,0.3133 0.0663,0.071 0.1505,0.1068 0.2521,0.1068 0.0536,0 0.1063,-0.0108 0.1585,-0.0325 0.0527,-0.0216 0.1011,-0.0541 0.1463,-0.0983 0.0447,-0.0442 0.0832,-0.0945 0.1147,-0.151 0.032,-0.0564 0.0574,-0.1171 0.0767,-0.1825 0.0287,-0.0912 0.0428,-0.1782 0.0428,-0.262 0,-0.1321 -0.0334,-0.2347 -0.1002,-0.3081 -0.0663,-0.0729 -0.15,-0.1091 -0.2511,-0.1091 -0.0781,0 -0.1496,0.0184 -0.2136,0.0555 -0.0644,0.0372 -0.1228,0.0917 -0.1745,0.1632 -0.0517,0.072 -0.0898,0.1553 -0.1143,0.2503 -0.0245,0.095 -0.0367,0.1796 -0.0367,0.2544z"/>
  <path id="12" class="fil6" d="M145.334 77.6929l0.3062 -1.4633 0.2201 0 -0.0616 0.2987c0.0753,-0.1129 0.1487,-0.1966 0.2211,-0.2507 0.072,-0.0541 0.1458,-0.0814 0.2211,-0.0814 0.0494,0 0.1105,0.0179 0.1834,0.0541l-0.1021 0.2314c-0.0432,-0.0315 -0.0907,-0.047 -0.142,-0.047 -0.087,0 -0.1769,0.0489 -0.2686,0.1463 -0.0922,0.0973 -0.1641,0.2723 -0.2164,0.5249l-0.1241 0.587 -0.2371 0z"/>
  <path id="123" class="fil6" d="M146.857 77.4902l-0.0409 0.2041c-0.0598,0.0155 -0.1176,0.0235 -0.1741,0.0235 -0.0987,0 -0.1778,-0.0244 -0.2366,-0.0733 -0.0442,-0.0367 -0.0663,-0.0866 -0.0663,-0.1501 0,-0.032 0.0118,-0.1058 0.0358,-0.222l0.1778 -0.85 -0.1971 0 0.04 -0.1928 0.197 0 0.0758 -0.3598 0.2855 -0.1722 -0.112 0.532 0.2456 0 -0.0414 0.1928 -0.2441 0 -0.1694 0.8091c-0.0211,0.1025 -0.0315,0.1641 -0.0315,0.1844 0,0.0296 0.0085,0.0517 0.0254,0.0677 0.0169,0.0155 0.0447,0.023 0.0833,0.023 0.055,0 0.1044,-0.0051 0.1472,-0.0164z"/>
  <path id="1234" class="fil6" d="M147.058 77.6929l0.4219 -2.0202 0.2493 0 -0.1613 0.7756c0.0926,-0.0898 0.1792,-0.1543 0.2592,-0.1933 0.0799,-0.0391 0.1622,-0.0588 0.2464,-0.0588 0.1214,0 0.2155,0.032 0.2827,0.0959 0.0673,0.064 0.1007,0.1482 0.1007,0.2531 0,0.0513 -0.0146,0.1458 -0.0442,0.2836l-0.1807 0.8641 -0.2493 0 0.1863 -0.8862c0.0263,-0.1284 0.04,-0.2093 0.04,-0.2422 0,-0.048 -0.0169,-0.087 -0.0499,-0.1171 -0.0329,-0.0306 -0.0809,-0.0457 -0.1434,-0.0457 -0.0899,0 -0.1759,0.0236 -0.2573,0.0711 -0.0819,0.047 -0.1463,0.1119 -0.1924,0.1942 -0.0466,0.0823 -0.0889,0.2145 -0.1275,0.3975l-0.1307 0.6284 -0.2498 0z"/>
  <path class="fil6" d="M141.729 146.936l0.2643 -0.0245 -0.0023 0.0701c0,0.0781 0.0179,0.1496 0.0536,0.2145 0.0358,0.0644 0.095,0.1147 0.1778,0.15 0.0823,0.0353 0.1806,0.0532 0.2949,0.0532 0.1614,0 0.2851,-0.0353 0.3697,-0.1063 0.0852,-0.0706 0.1275,-0.1515 0.1275,-0.2427 0,-0.0631 -0.0226,-0.1209 -0.0673,-0.1736 -0.0461,-0.0513 -0.1716,-0.1209 -0.3762,-0.2093 -0.159,-0.0687 -0.2672,-0.1218 -0.3251,-0.1585 -0.0912,-0.0598 -0.158,-0.1247 -0.2013,-0.1948 -0.0433,-0.0705 -0.0649,-0.1505 -0.0649,-0.2408 0,-0.1035 0.0287,-0.1975 0.0856,-0.2808 0.0569,-0.0837 0.1402,-0.1477 0.2498,-0.1919 0.11,-0.0438 0.2337,-0.0659 0.3716,-0.0659 0.1646,0 0.3033,0.0273 0.4162,0.0828 0.1129,0.0551 0.1948,0.1284 0.246,0.2202 0.0508,0.0921 0.0762,0.1796 0.0762,0.2634 0,0.0084 -0.0004,0.0221 -0.0014,0.0414l-0.2601 0.0206c0,-0.0569 -0.0052,-0.1016 -0.0155,-0.1335 -0.0184,-0.0565 -0.0466,-0.1035 -0.0851,-0.1421 -0.0386,-0.0386 -0.0918,-0.0696 -0.1595,-0.0931 -0.0673,-0.0235 -0.143,-0.0353 -0.2262,-0.0353 -0.1473,0 -0.2616,0.0334 -0.3434,0.0993 -0.0626,0.0508 -0.0936,0.1175 -0.0936,0.2013 0,0.0498 0.0127,0.094 0.0386,0.1331 0.0258,0.039 0.0719,0.0771 0.1392,0.1148 0.0475,0.0268 0.1608,0.0794 0.3401,0.1585 0.1453,0.0644 0.2455,0.1147 0.3005,0.1519 0.0734,0.0484 0.1298,0.1077 0.1694,0.1769 0.0395,0.0691 0.0592,0.1481 0.0592,0.2361 0,0.1096 -0.0329,0.2102 -0.0997,0.3029 -0.0668,0.0922 -0.1585,0.1637 -0.2761,0.214 -0.1176,0.0508 -0.2526,0.0757 -0.404,0.0757 -0.2286,0 -0.4154,-0.0498 -0.5603,-0.1495 -0.1444,-0.0998 -0.2173,-0.279 -0.2182,-0.5381z"/>
  <path id="1" class="fil6" d="M143.551 147.034c0,-0.2855 0.0842,-0.5221 0.2521,-0.7093 0.1388,-0.1548 0.3208,-0.2319 0.5457,-0.2319 0.1763,0 0.3189,0.0555 0.4266,0.1656 0.1077,0.11 0.1618,0.2591 0.1618,0.4463 0,0.1684 -0.0339,0.3246 -0.1021,0.4695 -0.0677,0.1444 -0.1646,0.2554 -0.2897,0.3325 -0.1256,0.0772 -0.2578,0.1157 -0.3965,0.1157 -0.1139,0 -0.2174,-0.024 -0.3105,-0.0729 -0.0931,-0.0484 -0.1646,-0.1176 -0.2135,-0.2065 -0.0494,-0.0893 -0.0739,-0.1924 -0.0739,-0.309zm0.2493 -0.0245c0,0.1379 0.0334,0.2423 0.0993,0.3133 0.0663,0.071 0.1505,0.1068 0.2521,0.1068 0.0536,0 0.1063,-0.0108 0.1585,-0.0325 0.0527,-0.0216 0.1011,-0.0541 0.1463,-0.0983 0.0447,-0.0442 0.0832,-0.0945 0.1147,-0.151 0.032,-0.0564 0.0574,-0.1171 0.0767,-0.1825 0.0287,-0.0912 0.0428,-0.1782 0.0428,-0.262 0,-0.1321 -0.0334,-0.2347 -0.1002,-0.3081 -0.0663,-0.0729 -0.15,-0.1091 -0.2511,-0.1091 -0.0781,0 -0.1496,0.0184 -0.2136,0.0555 -0.0644,0.0372 -0.1228,0.0917 -0.1745,0.1632 -0.0517,0.072 -0.0898,0.1553 -0.1143,0.2503 -0.0245,0.095 -0.0367,0.1796 -0.0367,0.2544z"/>
  <path id="12" class="fil6" d="M146.075 147.325c-0.1755,0.1985 -0.3552,0.2977 -0.5386,0.2977 -0.1129,0 -0.2041,-0.0324 -0.2738,-0.0969 -0.0691,-0.0649 -0.1039,-0.1439 -0.1039,-0.238 0,-0.0611 0.0155,-0.167 0.047,-0.3165l0.1764 -0.8448 0.2493 0 -0.1957 0.9355c-0.0164,0.0781 -0.0249,0.1388 -0.0249,0.1821 0,0.055 0.0169,0.0978 0.0503,0.1289 0.0334,0.0305 0.0828,0.0461 0.1482,0.0461 0.0696,0 0.1378,-0.017 0.2046,-0.0513 0.0668,-0.0339 0.1242,-0.08 0.1722,-0.1378 0.0484,-0.0579 0.0875,-0.1261 0.118,-0.2051 0.0203,-0.0508 0.0438,-0.1392 0.0701,-0.2662l0.1322 -0.6322 0.2497 0 -0.3062 1.4633 -0.23 0 0.0551 -0.2648z"/>
  <path id="123" class="fil6" d="M147.229 147.387l-0.0409 0.2041c-0.0598,0.0155 -0.1176,0.0235 -0.1741,0.0235 -0.0987,0 -0.1778,-0.0244 -0.2366,-0.0733 -0.0442,-0.0367 -0.0663,-0.0866 -0.0663,-0.1501 0,-0.032 0.0118,-0.1058 0.0358,-0.222l0.1778 -0.85 -0.1971 0 0.04 -0.1928 0.197 0 0.0758 -0.3598 0.2855 -0.1722 -0.112 0.532 0.2456 0 -0.0414 0.1928 -0.2441 0 -0.1694 0.8091c-0.0211,0.1025 -0.0315,0.1641 -0.0315,0.1844 0,0.0296 0.0085,0.0517 0.0254,0.0677 0.0169,0.0155 0.0447,0.023 0.0833,0.023 0.055,0 0.1044,-0.0051 0.1472,-0.0164z"/>
  <path id="1234" class="fil6" d="M147.43 147.589l0.4219 -2.0202 0.2493 0 -0.1613 0.7756c0.0926,-0.0898 0.1792,-0.1543 0.2592,-0.1933 0.0799,-0.0391 0.1622,-0.0588 0.2464,-0.0588 0.1214,0 0.2155,0.032 0.2827,0.0959 0.0673,0.064 0.1007,0.1482 0.1007,0.2531 0,0.0513 -0.0146,0.1458 -0.0442,0.2836l-0.1807 0.8641 -0.2493 0 0.1863 -0.8862c0.0263,-0.1284 0.04,-0.2093 0.04,-0.2422 0,-0.048 -0.0169,-0.087 -0.0499,-0.1171 -0.0329,-0.0306 -0.0809,-0.0457 -0.1434,-0.0457 -0.0899,0 -0.1759,0.0236 -0.2573,0.0711 -0.0819,0.047 -0.1463,0.1119 -0.1924,0.1942 -0.0466,0.0823 -0.0889,0.2145 -0.1275,0.3975l-0.1307 0.6284 -0.2498 0z"/>
  <path class="fil6" d="M90.232 126.138l0.2643 -0.0245 -0.0023 0.0701c0,0.0781 0.0179,0.1496 0.0536,0.2145 0.0358,0.0644 0.095,0.1147 0.1778,0.15 0.0823,0.0353 0.1806,0.0532 0.2949,0.0532 0.1614,0 0.2851,-0.0353 0.3697,-0.1063 0.0852,-0.0706 0.1275,-0.1515 0.1275,-0.2427 0,-0.0631 -0.0226,-0.1209 -0.0673,-0.1736 -0.0461,-0.0513 -0.1716,-0.1209 -0.3762,-0.2093 -0.159,-0.0687 -0.2672,-0.1218 -0.3251,-0.1585 -0.0912,-0.0598 -0.158,-0.1247 -0.2013,-0.1948 -0.0433,-0.0705 -0.0649,-0.1505 -0.0649,-0.2408 0,-0.1035 0.0287,-0.1975 0.0856,-0.2808 0.0569,-0.0837 0.1402,-0.1477 0.2498,-0.1919 0.11,-0.0438 0.2337,-0.0659 0.3716,-0.0659 0.1646,0 0.3033,0.0273 0.4162,0.0828 0.1129,0.0551 0.1948,0.1284 0.246,0.2202 0.0508,0.0921 0.0762,0.1796 0.0762,0.2634 0,0.0084 -0.0004,0.0221 -0.0014,0.0414l-0.2601 0.0206c0,-0.0569 -0.0052,-0.1016 -0.0155,-0.1335 -0.0184,-0.0565 -0.0466,-0.1035 -0.0851,-0.1421 -0.0386,-0.0386 -0.0918,-0.0696 -0.1595,-0.0931 -0.0673,-0.0235 -0.143,-0.0353 -0.2262,-0.0353 -0.1473,0 -0.2616,0.0334 -0.3434,0.0993 -0.0626,0.0508 -0.0936,0.1175 -0.0936,0.2013 0,0.0498 0.0127,0.094 0.0386,0.1331 0.0258,0.039 0.0719,0.0771 0.1392,0.1148 0.0475,0.0268 0.1608,0.0794 0.3401,0.1585 0.1453,0.0644 0.2455,0.1147 0.3005,0.1519 0.0734,0.0484 0.1298,0.1077 0.1694,0.1769 0.0395,0.0691 0.0592,0.1481 0.0592,0.2361 0,0.1096 -0.0329,0.2102 -0.0997,0.3029 -0.0668,0.0922 -0.1585,0.1637 -0.2761,0.214 -0.1176,0.0508 -0.2526,0.0757 -0.404,0.0757 -0.2286,0 -0.4154,-0.0498 -0.5603,-0.1495 -0.1444,-0.0998 -0.2173,-0.279 -0.2182,-0.5381z"/>
  <path id="1" class="fil6" d="M92.0537 126.236c0,-0.2855 0.0842,-0.5221 0.2521,-0.7093 0.1388,-0.1548 0.3208,-0.2319 0.5457,-0.2319 0.1763,0 0.3189,0.0555 0.4266,0.1656 0.1077,0.11 0.1618,0.2591 0.1618,0.4463 0,0.1684 -0.0339,0.3246 -0.1021,0.4695 -0.0677,0.1444 -0.1646,0.2554 -0.2897,0.3325 -0.1256,0.0772 -0.2578,0.1157 -0.3965,0.1157 -0.1139,0 -0.2174,-0.024 -0.3105,-0.0729 -0.0931,-0.0484 -0.1646,-0.1176 -0.2135,-0.2065 -0.0494,-0.0893 -0.0739,-0.1924 -0.0739,-0.309zm0.2493 -0.0245c0,0.1379 0.0334,0.2423 0.0993,0.3133 0.0663,0.071 0.1505,0.1068 0.2521,0.1068 0.0536,0 0.1063,-0.0108 0.1585,-0.0325 0.0527,-0.0216 0.1011,-0.0541 0.1463,-0.0983 0.0447,-0.0442 0.0832,-0.0945 0.1147,-0.151 0.032,-0.0564 0.0574,-0.1171 0.0767,-0.1825 0.0287,-0.0912 0.0428,-0.1782 0.0428,-0.262 0,-0.1321 -0.0334,-0.2347 -0.1002,-0.3081 -0.0663,-0.0729 -0.15,-0.1091 -0.2511,-0.1091 -0.0781,0 -0.1496,0.0184 -0.2136,0.0555 -0.0644,0.0372 -0.1228,0.0917 -0.1745,0.1632 -0.0517,0.072 -0.0898,0.1553 -0.1143,0.2503 -0.0245,0.095 -0.0367,0.1796 -0.0367,0.2544z"/>
  <path id="12" class="fil6" d="M94.5782 126.527c-0.1755,0.1985 -0.3552,0.2977 -0.5386,0.2977 -0.1129,0 -0.2041,-0.0324 -0.2738,-0.0969 -0.0691,-0.0649 -0.1039,-0.1439 -0.1039,-0.238 0,-0.0611 0.0155,-0.167 0.047,-0.3165l0.1764 -0.8448 0.2493 0 -0.1957 0.9355c-0.0164,0.0781 -0.0249,0.1388 -0.0249,0.1821 0,0.055 0.0169,0.0978 0.0503,0.1289 0.0334,0.0305 0.0828,0.0461 0.1482,0.0461 0.0696,0 0.1378,-0.017 0.2046,-0.0513 0.0668,-0.0339 0.1242,-0.08 0.1722,-0.1378 0.0484,-0.0579 0.0875,-0.1261 0.118,-0.2051 0.0203,-0.0508 0.0438,-0.1392 0.0701,-0.2662l0.1322 -0.6322 0.2497 0 -0.3062 1.4633 -0.23 0 0.0551 -0.2648z"/>
  <path id="123" class="fil6" d="M95.7315 126.589l-0.0409 0.2041c-0.0598,0.0155 -0.1176,0.0235 -0.1741,0.0235 -0.0987,0 -0.1778,-0.0244 -0.2366,-0.0733 -0.0442,-0.0367 -0.0663,-0.0866 -0.0663,-0.1501 0,-0.032 0.0118,-0.1058 0.0358,-0.222l0.1778 -0.85 -0.1971 0 0.04 -0.1928 0.197 0 0.0758 -0.3598 0.2855 -0.1722 -0.112 0.532 0.2456 0 -0.0414 0.1928 -0.2441 0 -0.1694 0.8091c-0.0211,0.1025 -0.0315,0.1641 -0.0315,0.1844 0,0.0296 0.0085,0.0517 0.0254,0.0677 0.0169,0.0155 0.0447,0.023 0.0833,0.023 0.055,0 0.1044,-0.0051 0.1472,-0.0164z"/>
  <path id="1234" class="fil6" d="M95.9328 126.792l0.4219 -2.0202 0.2493 0 -0.1613 0.7756c0.0926,-0.0898 0.1792,-0.1543 0.2592,-0.1933 0.0799,-0.0391 0.1622,-0.0588 0.2464,-0.0588 0.1214,0 0.2155,0.032 0.2827,0.0959 0.0673,0.064 0.1007,0.1482 0.1007,0.2531 0,0.0513 -0.0146,0.1458 -0.0442,0.2836l-0.1807 0.8641 -0.2493 0 0.1863 -0.8862c0.0263,-0.1284 0.04,-0.2093 0.04,-0.2422 0,-0.048 -0.0169,-0.087 -0.0499,-0.1171 -0.0329,-0.0306 -0.0809,-0.0457 -0.1434,-0.0457 -0.0899,0 -0.1759,0.0236 -0.2573,0.0711 -0.0819,0.047 -0.1463,0.1119 -0.1924,0.1942 -0.0466,0.0823 -0.0889,0.2145 -0.1275,0.3975l-0.1307 0.6284 -0.2498 0z"/>
  <path id="12345" class="fil6" d="M98.6699 126.792l-0.1242 -2.0202 0.2742 0 0.047 0.999c0.0024,0.048 0.0071,0.1774 0.0137,0.3886 0.0019,0.0588 0.0028,0.1001 0.0028,0.1241 0,0.0156 -0.0005,0.0612 -0.0014,0.1364 0.1119,-0.2295 0.1928,-0.3913 0.2422,-0.4849l0.6148 -1.1632 0.2785 0 0.0672 1.1811c0.0075,0.135 0.0127,0.2977 0.0155,0.4877 0.0165,-0.047 0.0457,-0.1166 0.088,-0.2093 0.0673,-0.15 0.1166,-0.2568 0.1491,-0.3212l0.5757 -1.1383 0.2757 0 -1.0278 2.0202 -0.2897 0 -0.0673 -1.2239c-0.0066,-0.1044 -0.0118,-0.2333 -0.015,-0.3857 -0.0565,0.1279 -0.1031,0.2272 -0.1407,0.2977l-0.7004 1.3119 -0.2779 0z"/>
  <path id="123456" class="fil6" d="M101.974 126.294l0.2427 0.0249c-0.0348,0.1204 -0.1152,0.2347 -0.2404,0.3433 -0.1255,0.1082 -0.2751,0.1623 -0.4487,0.1623 -0.1082,0 -0.2079,-0.0249 -0.2982,-0.0748 -0.0903,-0.0503 -0.1595,-0.1232 -0.207,-0.2187 -0.047,-0.0955 -0.0705,-0.2041 -0.0705,-0.3264 0,-0.1599 0.0367,-0.3147 0.1105,-0.4652 0.0743,-0.1501 0.1698,-0.2615 0.2874,-0.3349 0.1176,-0.0729 0.2451,-0.1096 0.382,-0.1096 0.1745,0 0.3137,0.0546 0.4181,0.1627 0.1044,0.1087 0.1562,0.2564 0.1562,0.4436 0,0.072 -0.0061,0.1453 -0.0193,0.2206l-1.0776 0c-0.0033,0.0287 -0.0052,0.0541 -0.0052,0.0771 0,0.1369 0.0315,0.2413 0.0941,0.3138 0.063,0.0719 0.1401,0.1082 0.2309,0.1082 0.0856,0 0.1694,-0.0283 0.2521,-0.0842 0.0828,-0.056 0.1473,-0.1369 0.1929,-0.2427zm-0.7248 -0.3622l0.8212 0c0.001,-0.0259 0.0014,-0.0442 0.0014,-0.0551 0,-0.1251 -0.031,-0.221 -0.0936,-0.2874 -0.0625,-0.0667 -0.143,-0.1001 -0.2413,-0.1001 -0.1063,0 -0.2036,0.0371 -0.2911,0.1105 -0.088,0.0734 -0.1534,0.1839 -0.1966,0.3321z"/>
  <path id="1234567" class="fil6" d="M102.492 126.292l0.2493 -0.0155c0,0.0719 0.0113,0.1331 0.0334,0.1834 0.0216,0.0504 0.0626,0.0917 0.1218,0.1242 0.0593,0.032 0.1284,0.048 0.2075,0.048 0.11,0 0.1928,-0.0221 0.2479,-0.0659 0.055,-0.0442 0.0827,-0.0964 0.0827,-0.1561 0,-0.0428 -0.0164,-0.0838 -0.0498,-0.1223 -0.0339,-0.0386 -0.1167,-0.0861 -0.2484,-0.1426 -0.1321,-0.0569 -0.2163,-0.0964 -0.253,-0.1194 -0.0617,-0.0377 -0.1077,-0.0819 -0.1393,-0.1331 -0.031,-0.0508 -0.0465,-0.1096 -0.0465,-0.1755 0,-0.1157 0.0456,-0.2149 0.1378,-0.2977 0.0917,-0.0828 0.2201,-0.1242 0.3857,-0.1242 0.1834,0 0.3236,0.0428 0.4196,0.1275 0.0959,0.0851 0.1458,0.197 0.1495,0.3358l-0.2441 0.0165c-0.0037,-0.0885 -0.0348,-0.1581 -0.0936,-0.2093 -0.0588,-0.0518 -0.142,-0.0772 -0.2493,-0.0772 -0.0865,0 -0.1533,0.0198 -0.2013,0.0588 -0.048,0.0395 -0.0715,0.0823 -0.0715,0.1284 0,0.0461 0.0207,0.0866 0.0621,0.1214 0.0273,0.024 0.0983,0.0607 0.2135,0.11 0.191,0.0828 0.3114,0.1482 0.3608,0.1957 0.079,0.0762 0.1185,0.1693 0.1185,0.2785 0,0.0724 -0.0221,0.1439 -0.0668,0.2135 -0.0446,0.0696 -0.1124,0.1256 -0.2041,0.1675 -0.0912,0.0418 -0.199,0.0625 -0.3231,0.0625 -0.1689,0 -0.3128,-0.0418 -0.4314,-0.1251 -0.1185,-0.0837 -0.1745,-0.2197 -0.1679,-0.4078z"/>
  <path id="12345678" class="fil6" d="M104.463 126.589l-0.0409 0.2041c-0.0598,0.0155 -0.1176,0.0235 -0.1741,0.0235 -0.0987,0 -0.1778,-0.0244 -0.2366,-0.0733 -0.0442,-0.0367 -0.0663,-0.0866 -0.0663,-0.1501 0,-0.032 0.0118,-0.1058 0.0358,-0.222l0.1778 -0.85 -0.1971 0 0.04 -0.1928 0.197 0 0.0758 -0.3598 0.2855 -0.1722 -0.112 0.532 0.2456 0 -0.0414 0.1928 -0.2441 0 -0.1694 0.8091c-0.0211,0.1025 -0.0315,0.1641 -0.0315,0.1844 0,0.0296 0.0085,0.0517 0.0254,0.0677 0.0169,0.0155 0.0447,0.023 0.0833,0.023 0.055,0 0.1044,-0.0051 0.1472,-0.0164z"/>
  <path class="fil6" d="M101.563 99.5777l-0.1242 -2.0202 0.2742 0 0.047 0.999c0.0024,0.048 0.0071,0.1774 0.0137,0.3886 0.0019,0.0588 0.0028,0.1001 0.0028,0.1241 0,0.0156 -0.0005,0.0612 -0.0014,0.1364 0.1119,-0.2295 0.1928,-0.3913 0.2422,-0.4849l0.6148 -1.1632 0.2785 0 0.0672 1.1811c0.0075,0.135 0.0127,0.2977 0.0155,0.4877 0.0165,-0.047 0.0457,-0.1166 0.088,-0.2093 0.0673,-0.15 0.1166,-0.2568 0.1491,-0.3212l0.5757 -1.1383 0.2757 0 -1.0278 2.0202 -0.2897 0 -0.0673 -1.2239c-0.0066,-0.1044 -0.0118,-0.2333 -0.015,-0.3857 -0.0565,0.1279 -0.1031,0.2272 -0.1407,0.2977l-0.7004 1.3119 -0.2779 0z"/>
  <path id="1" class="fil6" d="M104.868 99.0801l0.2427 0.0249c-0.0348,0.1204 -0.1152,0.2347 -0.2404,0.3433 -0.1255,0.1082 -0.2751,0.1623 -0.4487,0.1623 -0.1082,0 -0.2079,-0.0249 -0.2982,-0.0748 -0.0903,-0.0503 -0.1595,-0.1232 -0.207,-0.2187 -0.047,-0.0955 -0.0705,-0.2041 -0.0705,-0.3264 0,-0.1599 0.0367,-0.3147 0.1105,-0.4652 0.0743,-0.1501 0.1698,-0.2615 0.2874,-0.3349 0.1176,-0.0729 0.2451,-0.1096 0.382,-0.1096 0.1745,0 0.3137,0.0546 0.4181,0.1627 0.1044,0.1087 0.1562,0.2564 0.1562,0.4436 0,0.072 -0.0061,0.1453 -0.0193,0.2206l-1.0776 0c-0.0033,0.0287 -0.0052,0.0541 -0.0052,0.0771 0,0.1369 0.0315,0.2413 0.0941,0.3138 0.063,0.0719 0.1401,0.1082 0.2309,0.1082 0.0856,0 0.1694,-0.0283 0.2521,-0.0842 0.0828,-0.056 0.1473,-0.1369 0.1929,-0.2427zm-0.7248 -0.3622l0.8212 0c0.001,-0.0259 0.0014,-0.0442 0.0014,-0.0551 0,-0.1251 -0.031,-0.221 -0.0936,-0.2874 -0.0625,-0.0667 -0.143,-0.1001 -0.2413,-0.1001 -0.1063,0 -0.2036,0.0371 -0.2911,0.1105 -0.088,0.0734 -0.1534,0.1839 -0.1966,0.3321z"/>
  <path id="12" class="fil6" d="M105.386 99.0777l0.2493 -0.0155c0,0.0719 0.0113,0.1331 0.0334,0.1834 0.0216,0.0504 0.0626,0.0917 0.1218,0.1242 0.0593,0.032 0.1284,0.048 0.2075,0.048 0.11,0 0.1928,-0.0221 0.2479,-0.0659 0.055,-0.0442 0.0827,-0.0964 0.0827,-0.1561 0,-0.0428 -0.0164,-0.0838 -0.0498,-0.1223 -0.0339,-0.0386 -0.1167,-0.0861 -0.2484,-0.1426 -0.1321,-0.0569 -0.2163,-0.0964 -0.253,-0.1194 -0.0617,-0.0377 -0.1077,-0.0819 -0.1393,-0.1331 -0.031,-0.0508 -0.0465,-0.1096 -0.0465,-0.1755 0,-0.1157 0.0456,-0.2149 0.1378,-0.2977 0.0917,-0.0828 0.2201,-0.1242 0.3857,-0.1242 0.1834,0 0.3236,0.0428 0.4196,0.1275 0.0959,0.0851 0.1458,0.197 0.1495,0.3358l-0.2441 0.0165c-0.0037,-0.0885 -0.0348,-0.1581 -0.0936,-0.2093 -0.0588,-0.0518 -0.142,-0.0772 -0.2493,-0.0772 -0.0865,0 -0.1533,0.0198 -0.2013,0.0588 -0.048,0.0395 -0.0715,0.0823 -0.0715,0.1284 0,0.0461 0.0207,0.0866 0.0621,0.1214 0.0273,0.024 0.0983,0.0607 0.2135,0.11 0.191,0.0828 0.3114,0.1482 0.3608,0.1957 0.079,0.0762 0.1185,0.1693 0.1185,0.2785 0,0.0724 -0.0221,0.1439 -0.0668,0.2135 -0.0446,0.0696 -0.1124,0.1256 -0.2041,0.1675 -0.0912,0.0418 -0.199,0.0625 -0.3231,0.0625 -0.1689,0 -0.3128,-0.0418 -0.4314,-0.1251 -0.1185,-0.0837 -0.1745,-0.2197 -0.1679,-0.4078z"/>
  <path id="123" class="fil6" d="M107.356 99.375l-0.0409 0.2041c-0.0598,0.0155 -0.1176,0.0235 -0.1741,0.0235 -0.0987,0 -0.1778,-0.0244 -0.2366,-0.0733 -0.0442,-0.0367 -0.0663,-0.0866 -0.0663,-0.1501 0,-0.032 0.0118,-0.1058 0.0358,-0.222l0.1778 -0.85 -0.1971 0 0.04 -0.1928 0.197 0 0.0758 -0.3598 0.2855 -0.1722 -0.112 0.532 0.2456 0 -0.0414 0.1928 -0.2441 0 -0.1694 0.8091c-0.0211,0.1025 -0.0315,0.1641 -0.0315,0.1844 0,0.0296 0.0085,0.0517 0.0254,0.0677 0.0169,0.0155 0.0447,0.023 0.0833,0.023 0.055,0 0.1044,-0.0051 0.1472,-0.0164z"/>
  <path class="fil6" d="M100.154 71.0535l0.4229 -2.0202 0.262 0 0.3405 0.7577c0.1035,0.2319 0.1858,0.4267 0.2465,0.5847 0.0348,0.0917 0.0752,0.2159 0.1213,0.3721 0.025,-0.1703 0.056,-0.3458 0.0936,-0.5268l0.2479 -1.1877 0.2634 0 -0.4214 2.0202 -0.2677 0 -0.5014 -1.167c-0.0893,-0.206 -0.1585,-0.3876 -0.2083,-0.5447 -0.0137,0.1317 -0.0405,0.2926 -0.08,0.484l-0.2559 1.2277 -0.2634 0z"/>
  <path id="1" class="fil6" d="M102.192 70.498c0,-0.2855 0.0842,-0.5221 0.2521,-0.7093 0.1388,-0.1548 0.3208,-0.2319 0.5457,-0.2319 0.1763,0 0.3189,0.0555 0.4266,0.1656 0.1077,0.11 0.1618,0.2591 0.1618,0.4463 0,0.1684 -0.0339,0.3246 -0.1021,0.4695 -0.0677,0.1444 -0.1646,0.2554 -0.2897,0.3325 -0.1256,0.0772 -0.2578,0.1157 -0.3965,0.1157 -0.1139,0 -0.2174,-0.024 -0.3105,-0.0729 -0.0931,-0.0484 -0.1646,-0.1176 -0.2135,-0.2065 -0.0494,-0.0893 -0.0739,-0.1924 -0.0739,-0.309zm0.2493 -0.0245c0,0.1379 0.0334,0.2423 0.0993,0.3133 0.0663,0.071 0.1505,0.1068 0.2521,0.1068 0.0536,0 0.1063,-0.0108 0.1585,-0.0325 0.0527,-0.0216 0.1011,-0.0541 0.1463,-0.0983 0.0447,-0.0442 0.0832,-0.0945 0.1147,-0.151 0.032,-0.0564 0.0574,-0.1171 0.0767,-0.1825 0.0287,-0.0912 0.0428,-0.1782 0.0428,-0.262 0,-0.1321 -0.0334,-0.2347 -0.1002,-0.3081 -0.0663,-0.0729 -0.15,-0.1091 -0.2511,-0.1091 -0.0781,0 -0.1496,0.0184 -0.2136,0.0555 -0.0644,0.0372 -0.1228,0.0917 -0.1745,0.1632 -0.0517,0.072 -0.0898,0.1553 -0.1143,0.2503 -0.0245,0.095 -0.0367,0.1796 -0.0367,0.2544z"/>
  <path id="12" class="fil6" d="M103.718 71.0535l0.3062 -1.4633 0.2201 0 -0.0616 0.2987c0.0753,-0.1129 0.1487,-0.1966 0.2211,-0.2507 0.072,-0.0541 0.1458,-0.0814 0.2211,-0.0814 0.0494,0 0.1105,0.0179 0.1834,0.0541l-0.1021 0.2314c-0.0432,-0.0315 -0.0907,-0.047 -0.142,-0.047 -0.087,0 -0.1769,0.0489 -0.2686,0.1463 -0.0922,0.0973 -0.1641,0.2723 -0.2164,0.5249l-0.1241 0.587 -0.2371 0z"/>
  <path id="123" class="fil6" d="M105.24 70.8508l-0.0409 0.2041c-0.0598,0.0155 -0.1176,0.0235 -0.1741,0.0235 -0.0987,0 -0.1778,-0.0244 -0.2366,-0.0733 -0.0442,-0.0367 -0.0663,-0.0866 -0.0663,-0.1501 0,-0.032 0.0118,-0.1058 0.0358,-0.222l0.1778 -0.85 -0.1971 0 0.04 -0.1928 0.197 0 0.0758 -0.3598 0.2855 -0.1722 -0.112 0.532 0.2456 0 -0.0414 0.1928 -0.2441 0 -0.1694 0.8091c-0.0211,0.1025 -0.0315,0.1641 -0.0315,0.1844 0,0.0296 0.0085,0.0517 0.0254,0.0677 0.0169,0.0155 0.0447,0.023 0.0833,0.023 0.055,0 0.1044,-0.0051 0.1472,-0.0164z"/>
  <path id="1234" class="fil6" d="M105.442 71.0535l0.4219 -2.0202 0.2493 0 -0.1613 0.7756c0.0926,-0.0898 0.1792,-0.1543 0.2592,-0.1933 0.0799,-0.0391 0.1622,-0.0588 0.2464,-0.0588 0.1214,0 0.2155,0.032 0.2827,0.0959 0.0673,0.064 0.1007,0.1482 0.1007,0.2531 0,0.0513 -0.0146,0.1458 -0.0442,0.2836l-0.1807 0.8641 -0.2493 0 0.1863 -0.8862c0.0263,-0.1284 0.04,-0.2093 0.04,-0.2422 0,-0.048 -0.0169,-0.087 -0.0499,-0.1171 -0.0329,-0.0306 -0.0809,-0.0457 -0.1434,-0.0457 -0.0899,0 -0.1759,0.0236 -0.2573,0.0711 -0.0819,0.047 -0.1463,0.1119 -0.1924,0.1942 -0.0466,0.0823 -0.0889,0.2145 -0.1275,0.3975l-0.1307 0.6284 -0.2498 0z"/>
  <path id="12345" class="fil6" d="M108.179 71.0535l-0.1242 -2.0202 0.2742 0 0.047 0.999c0.0024,0.048 0.0071,0.1774 0.0137,0.3886 0.0019,0.0588 0.0028,0.1001 0.0028,0.1241 0,0.0156 -0.0005,0.0612 -0.0014,0.1364 0.1119,-0.2295 0.1928,-0.3913 0.2422,-0.4849l0.6148 -1.1632 0.2785 0 0.0672 1.1811c0.0075,0.135 0.0127,0.2977 0.0155,0.4877 0.0165,-0.047 0.0457,-0.1166 0.088,-0.2093 0.0673,-0.15 0.1166,-0.2568 0.1491,-0.3212l0.5757 -1.1383 0.2757 0 -1.0278 2.0202 -0.2897 0 -0.0673 -1.2239c-0.0066,-0.1044 -0.0118,-0.2333 -0.015,-0.3857 -0.0565,0.1279 -0.1031,0.2272 -0.1407,0.2977l-0.7004 1.3119 -0.2779 0z"/>
  <path id="123456" class="fil6" d="M111.483 70.5559l0.2427 0.0249c-0.0348,0.1204 -0.1152,0.2347 -0.2404,0.3433 -0.1255,0.1082 -0.2751,0.1623 -0.4487,0.1623 -0.1082,0 -0.2079,-0.0249 -0.2982,-0.0748 -0.0903,-0.0503 -0.1595,-0.1232 -0.207,-0.2187 -0.047,-0.0955 -0.0705,-0.2041 -0.0705,-0.3264 0,-0.1599 0.0367,-0.3147 0.1105,-0.4652 0.0743,-0.1501 0.1698,-0.2615 0.2874,-0.3349 0.1176,-0.0729 0.2451,-0.1096 0.382,-0.1096 0.1745,0 0.3137,0.0546 0.4181,0.1627 0.1044,0.1087 0.1562,0.2564 0.1562,0.4436 0,0.072 -0.0061,0.1453 -0.0193,0.2206l-1.0776 0c-0.0033,0.0287 -0.0052,0.0541 -0.0052,0.0771 0,0.1369 0.0315,0.2413 0.0941,0.3138 0.063,0.0719 0.1401,0.1082 0.2309,0.1082 0.0856,0 0.1694,-0.0283 0.2521,-0.0842 0.0828,-0.056 0.1473,-0.1369 0.1929,-0.2427zm-0.7248 -0.3622l0.8212 0c0.001,-0.0259 0.0014,-0.0442 0.0014,-0.0551 0,-0.1251 -0.031,-0.221 -0.0936,-0.2874 -0.0625,-0.0667 -0.143,-0.1001 -0.2413,-0.1001 -0.1063,0 -0.2036,0.0371 -0.2911,0.1105 -0.088,0.0734 -0.1534,0.1839 -0.1966,0.3321z"/>
  <path id="1234567" class="fil6" d="M112.001 70.5535l0.2493 -0.0155c0,0.0719 0.0113,0.1331 0.0334,0.1834 0.0216,0.0504 0.0626,0.0917 0.1218,0.1242 0.0593,0.032 0.1284,0.048 0.2075,0.048 0.11,0 0.1928,-0.0221 0.2479,-0.0659 0.055,-0.0442 0.0827,-0.0964 0.0827,-0.1561 0,-0.0428 -0.0164,-0.0838 -0.0498,-0.1223 -0.0339,-0.0386 -0.1167,-0.0861 -0.2484,-0.1426 -0.1321,-0.0569 -0.2163,-0.0964 -0.253,-0.1194 -0.0617,-0.0377 -0.1077,-0.0819 -0.1393,-0.1331 -0.031,-0.0508 -0.0465,-0.1096 -0.0465,-0.1755 0,-0.1157 0.0456,-0.2149 0.1378,-0.2977 0.0917,-0.0828 0.2201,-0.1242 0.3857,-0.1242 0.1834,0 0.3236,0.0428 0.4196,0.1275 0.0959,0.0851 0.1458,0.197 0.1495,0.3358l-0.2441 0.0165c-0.0037,-0.0885 -0.0348,-0.1581 -0.0936,-0.2093 -0.0588,-0.0518 -0.142,-0.0772 -0.2493,-0.0772 -0.0865,0 -0.1533,0.0198 -0.2013,0.0588 -0.048,0.0395 -0.0715,0.0823 -0.0715,0.1284 0,0.0461 0.0207,0.0866 0.0621,0.1214 0.0273,0.024 0.0983,0.0607 0.2135,0.11 0.191,0.0828 0.3114,0.1482 0.3608,0.1957 0.079,0.0762 0.1185,0.1693 0.1185,0.2785 0,0.0724 -0.0221,0.1439 -0.0668,0.2135 -0.0446,0.0696 -0.1124,0.1256 -0.2041,0.1675 -0.0912,0.0418 -0.199,0.0625 -0.3231,0.0625 -0.1689,0 -0.3128,-0.0418 -0.4314,-0.1251 -0.1185,-0.0837 -0.1745,-0.2197 -0.1679,-0.4078z"/>
  <path id="12345678" class="fil6" d="M113.972 70.8508l-0.0409 0.2041c-0.0598,0.0155 -0.1176,0.0235 -0.1741,0.0235 -0.0987,0 -0.1778,-0.0244 -0.2366,-0.0733 -0.0442,-0.0367 -0.0663,-0.0866 -0.0663,-0.1501 0,-0.032 0.0118,-0.1058 0.0358,-0.222l0.1778 -0.85 -0.1971 0 0.04 -0.1928 0.197 0 0.0758 -0.3598 0.2855 -0.1722 -0.112 0.532 0.2456 0 -0.0414 0.1928 -0.2441 0 -0.1694 0.8091c-0.0211,0.1025 -0.0315,0.1641 -0.0315,0.1844 0,0.0296 0.0085,0.0517 0.0254,0.0677 0.0169,0.0155 0.0447,0.023 0.0833,0.023 0.055,0 0.1044,-0.0051 0.1472,-0.0164z"/>
  <path class="fil6" d="M155.089 91.0555l0.4229 -2.0202 0.262 0 0.3405 0.7577c0.1035,0.2319 0.1858,0.4267 0.2465,0.5847 0.0348,0.0917 0.0752,0.2159 0.1213,0.3721 0.025,-0.1703 0.056,-0.3458 0.0936,-0.5268l0.2479 -1.1877 0.2634 0 -0.4214 2.0202 -0.2677 0 -0.5014 -1.167c-0.0893,-0.206 -0.1585,-0.3876 -0.2083,-0.5447 -0.0137,0.1317 -0.0405,0.2926 -0.08,0.484l-0.2559 1.2277 -0.2634 0z"/>
  <path id="1" class="fil6" d="M157.127 90.5c0,-0.2855 0.0842,-0.5221 0.2521,-0.7093 0.1388,-0.1548 0.3208,-0.2319 0.5457,-0.2319 0.1763,0 0.3189,0.0555 0.4266,0.1656 0.1077,0.11 0.1618,0.2591 0.1618,0.4463 0,0.1684 -0.0339,0.3246 -0.1021,0.4695 -0.0677,0.1444 -0.1646,0.2554 -0.2897,0.3325 -0.1256,0.0772 -0.2578,0.1157 -0.3965,0.1157 -0.1139,0 -0.2174,-0.024 -0.3105,-0.0729 -0.0931,-0.0484 -0.1646,-0.1176 -0.2135,-0.2065 -0.0494,-0.0893 -0.0739,-0.1924 -0.0739,-0.309zm0.2493 -0.0245c0,0.1379 0.0334,0.2423 0.0993,0.3133 0.0663,0.071 0.1505,0.1068 0.2521,0.1068 0.0536,0 0.1063,-0.0108 0.1585,-0.0325 0.0527,-0.0216 0.1011,-0.0541 0.1463,-0.0983 0.0447,-0.0442 0.0832,-0.0945 0.1147,-0.151 0.032,-0.0564 0.0574,-0.1171 0.0767,-0.1825 0.0287,-0.0912 0.0428,-0.1782 0.0428,-0.262 0,-0.1321 -0.0334,-0.2347 -0.1002,-0.3081 -0.0663,-0.0729 -0.15,-0.1091 -0.2511,-0.1091 -0.0781,0 -0.1496,0.0184 -0.2136,0.0555 -0.0644,0.0372 -0.1228,0.0917 -0.1745,0.1632 -0.0517,0.072 -0.0898,0.1553 -0.1143,0.2503 -0.0245,0.095 -0.0367,0.1796 -0.0367,0.2544z"/>
  <path id="12" class="fil6" d="M158.653 91.0555l0.3062 -1.4633 0.2201 0 -0.0616 0.2987c0.0753,-0.1129 0.1487,-0.1966 0.2211,-0.2507 0.072,-0.0541 0.1458,-0.0814 0.2211,-0.0814 0.0494,0 0.1105,0.0179 0.1834,0.0541l-0.1021 0.2314c-0.0432,-0.0315 -0.0907,-0.047 -0.142,-0.047 -0.087,0 -0.1769,0.0489 -0.2686,0.1463 -0.0922,0.0973 -0.1641,0.2723 -0.2164,0.5249l-0.1241 0.587 -0.2371 0z"/>
  <path id="123" class="fil6" d="M160.175 90.8528l-0.0409 0.2041c-0.0598,0.0155 -0.1176,0.0235 -0.1741,0.0235 -0.0987,0 -0.1778,-0.0244 -0.2366,-0.0733 -0.0442,-0.0367 -0.0663,-0.0866 -0.0663,-0.1501 0,-0.032 0.0118,-0.1058 0.0358,-0.222l0.1778 -0.85 -0.1971 0 0.04 -0.1928 0.197 0 0.0758 -0.3598 0.2855 -0.1722 -0.112 0.532 0.2456 0 -0.0414 0.1928 -0.2441 0 -0.1694 0.8091c-0.0211,0.1025 -0.0315,0.1641 -0.0315,0.1844 0,0.0296 0.0085,0.0517 0.0254,0.0677 0.0169,0.0155 0.0447,0.023 0.0833,0.023 0.055,0 0.1044,-0.0051 0.1472,-0.0164z"/>
  <path id="1234" class="fil6" d="M160.377 91.0555l0.4219 -2.0202 0.2493 0 -0.1613 0.7756c0.0926,-0.0898 0.1792,-0.1543 0.2592,-0.1933 0.0799,-0.0391 0.1622,-0.0588 0.2464,-0.0588 0.1214,0 0.2155,0.032 0.2827,0.0959 0.0673,0.064 0.1007,0.1482 0.1007,0.2531 0,0.0513 -0.0146,0.1458 -0.0442,0.2836l-0.1807 0.8641 -0.2493 0 0.1863 -0.8862c0.0263,-0.1284 0.04,-0.2093 0.04,-0.2422 0,-0.048 -0.0169,-0.087 -0.0499,-0.1171 -0.0329,-0.0306 -0.0809,-0.0457 -0.1434,-0.0457 -0.0899,0 -0.1759,0.0236 -0.2573,0.0711 -0.0819,0.047 -0.1463,0.1119 -0.1924,0.1942 -0.0466,0.0823 -0.0889,0.2145 -0.1275,0.3975l-0.1307 0.6284 -0.2498 0z"/>
  <polygon id="12345" class="fil6" points="162.764,91.0555 163.187,89.0353 164.645,89.0353 164.596,89.2653 163.409,89.2653 163.276,89.8937 164.434,89.8937 164.386,90.1242 163.228,90.1242 163.082,90.8269 164.354,90.8269 164.306,91.0555 "/>
  <path id="123456" class="fil6" d="M165.6 90.8735c-0.0865,0.0743 -0.1693,0.1288 -0.2493,0.1632 -0.0799,0.0348 -0.1655,0.0517 -0.2563,0.0517 -0.135,0 -0.2441,-0.0395 -0.3269,-0.119 -0.0823,-0.0795 -0.1237,-0.1811 -0.1237,-0.3052 0,-0.0819 0.0183,-0.1543 0.0555,-0.2169 0.0371,-0.063 0.0865,-0.1138 0.1481,-0.1519 0.0617,-0.0381 0.1369,-0.0654 0.2263,-0.0819 0.056,-0.0108 0.1623,-0.0197 0.3189,-0.0263 0.1566,-0.0061 0.2691,-0.023 0.3368,-0.0494 0.0193,-0.0682 0.0291,-0.1246 0.0291,-0.1698 0,-0.0578 -0.0211,-0.103 -0.0635,-0.1364 -0.0578,-0.0456 -0.1425,-0.0687 -0.2535,-0.0687 -0.1049,0 -0.1905,0.0231 -0.2568,0.0696 -0.0668,0.0466 -0.1152,0.1125 -0.1453,0.1976l-0.2526 -0.0221c0.0517,-0.1449 0.1331,-0.2559 0.2446,-0.3335 0.1119,-0.0771 0.2525,-0.1157 0.4223,-0.1157 0.1811,0 0.3246,0.0433 0.43,0.1298 0.0809,0.064 0.1213,0.1477 0.1213,0.2507 0,0.0781 -0.0113,0.1684 -0.0343,0.2714l-0.0814 0.3641c-0.0259,0.1157 -0.0386,0.2098 -0.0386,0.2822 0,0.0461 0.0104,0.112 0.0306,0.1985l-0.2526 0c-0.0136,-0.048 -0.023,-0.1082 -0.0287,-0.182zm0.0922 -0.5593c-0.0348,0.0136 -0.0724,0.0245 -0.1124,0.0315 -0.04,0.0075 -0.1068,0.0151 -0.2004,0.0235 -0.1448,0.0127 -0.2474,0.0292 -0.3071,0.049 -0.0598,0.0197 -0.1049,0.0512 -0.135,0.0945 -0.0306,0.0428 -0.0456,0.0908 -0.0456,0.143 0,0.0701 0.0239,0.1275 0.0724,0.1726 0.048,0.0447 0.1166,0.0673 0.206,0.0673 0.0828,0 0.1623,-0.0217 0.2385,-0.0654 0.0762,-0.0437 0.1364,-0.1044 0.1801,-0.1825 0.0443,-0.0781 0.0786,-0.1896 0.1035,-0.3335z"/>
  <path id="1234567" class="fil6" d="M166.206 90.5555l0.2493 -0.0155c0,0.0719 0.0113,0.1331 0.0334,0.1834 0.0216,0.0504 0.0626,0.0917 0.1218,0.1242 0.0593,0.032 0.1284,0.048 0.2075,0.048 0.11,0 0.1928,-0.0221 0.2479,-0.0659 0.055,-0.0442 0.0827,-0.0964 0.0827,-0.1561 0,-0.0428 -0.0164,-0.0838 -0.0498,-0.1223 -0.0339,-0.0386 -0.1167,-0.0861 -0.2484,-0.1426 -0.1321,-0.0569 -0.2163,-0.0964 -0.253,-0.1194 -0.0617,-0.0377 -0.1077,-0.0819 -0.1393,-0.1331 -0.031,-0.0508 -0.0465,-0.1096 -0.0465,-0.1755 0,-0.1157 0.0456,-0.2149 0.1378,-0.2977 0.0917,-0.0828 0.2201,-0.1242 0.3857,-0.1242 0.1834,0 0.3236,0.0428 0.4196,0.1275 0.0959,0.0851 0.1458,0.197 0.1495,0.3358l-0.2441 0.0165c-0.0037,-0.0885 -0.0348,-0.1581 -0.0936,-0.2093 -0.0588,-0.0518 -0.142,-0.0772 -0.2493,-0.0772 -0.0865,0 -0.1533,0.0198 -0.2013,0.0588 -0.048,0.0395 -0.0715,0.0823 -0.0715,0.1284 0,0.0461 0.0207,0.0866 0.0621,0.1214 0.0273,0.024 0.0983,0.0607 0.2135,0.11 0.191,0.0828 0.3114,0.1482 0.3608,0.1957 0.079,0.0762 0.1185,0.1693 0.1185,0.2785 0,0.0724 -0.0221,0.1439 -0.0668,0.2135 -0.0446,0.0696 -0.1124,0.1256 -0.2041,0.1675 -0.0912,0.0418 -0.199,0.0625 -0.3231,0.0625 -0.1689,0 -0.3128,-0.0418 -0.4314,-0.1251 -0.1185,-0.0837 -0.1745,-0.2197 -0.1679,-0.4078z"/>
  <path id="12345678" class="fil6" d="M168.176 90.8528l-0.0409 0.2041c-0.0598,0.0155 -0.1176,0.0235 -0.1741,0.0235 -0.0987,0 -0.1778,-0.0244 -0.2366,-0.0733 -0.0442,-0.0367 -0.0663,-0.0866 -0.0663,-0.1501 0,-0.032 0.0118,-0.1058 0.0358,-0.222l0.1778 -0.85 -0.1971 0 0.04 -0.1928 0.197 0 0.0758 -0.3598 0.2855 -0.1722 -0.112 0.532 0.2456 0 -0.0414 0.1928 -0.2441 0 -0.1694 0.8091c-0.0211,0.1025 -0.0315,0.1641 -0.0315,0.1844 0,0.0296 0.0085,0.0517 0.0254,0.0677 0.0169,0.0155 0.0447,0.023 0.0833,0.023 0.055,0 0.1044,-0.0051 0.1472,-0.0164z"/>
  <polygon class="fil6" points="162.246,111.305 162.669,109.285 164.127,109.285 164.078,109.515 162.891,109.515 162.758,110.143 163.916,110.143 163.868,110.374 162.71,110.374 162.564,111.076 163.836,111.076 163.788,111.305 "/>
  <path id="1" class="fil6" d="M165.082 111.123c-0.0865,0.0743 -0.1693,0.1288 -0.2493,0.1632 -0.0799,0.0348 -0.1655,0.0517 -0.2563,0.0517 -0.135,0 -0.2441,-0.0395 -0.3269,-0.119 -0.0823,-0.0795 -0.1237,-0.1811 -0.1237,-0.3052 0,-0.0819 0.0183,-0.1543 0.0555,-0.2169 0.0371,-0.063 0.0865,-0.1138 0.1481,-0.1519 0.0617,-0.0381 0.1369,-0.0654 0.2263,-0.0819 0.056,-0.0108 0.1623,-0.0197 0.3189,-0.0263 0.1566,-0.0061 0.2691,-0.023 0.3368,-0.0494 0.0193,-0.0682 0.0291,-0.1246 0.0291,-0.1698 0,-0.0578 -0.0211,-0.103 -0.0635,-0.1364 -0.0578,-0.0456 -0.1425,-0.0687 -0.2535,-0.0687 -0.1049,0 -0.1905,0.0231 -0.2568,0.0696 -0.0668,0.0466 -0.1152,0.1125 -0.1453,0.1976l-0.2526 -0.0221c0.0517,-0.1449 0.1331,-0.2559 0.2446,-0.3335 0.1119,-0.0771 0.2525,-0.1157 0.4223,-0.1157 0.1811,0 0.3246,0.0433 0.43,0.1298 0.0809,0.064 0.1213,0.1477 0.1213,0.2507 0,0.0781 -0.0113,0.1684 -0.0343,0.2714l-0.0814 0.3641c-0.0259,0.1157 -0.0386,0.2098 -0.0386,0.2822 0,0.0461 0.0104,0.112 0.0306,0.1985l-0.2526 0c-0.0136,-0.048 -0.023,-0.1082 -0.0287,-0.182zm0.0922 -0.5593c-0.0348,0.0136 -0.0724,0.0245 -0.1124,0.0315 -0.04,0.0075 -0.1068,0.0151 -0.2004,0.0235 -0.1448,0.0127 -0.2474,0.0292 -0.3071,0.049 -0.0598,0.0197 -0.1049,0.0512 -0.135,0.0945 -0.0306,0.0428 -0.0456,0.0908 -0.0456,0.143 0,0.0701 0.0239,0.1275 0.0724,0.1726 0.048,0.0447 0.1166,0.0673 0.206,0.0673 0.0828,0 0.1623,-0.0217 0.2385,-0.0654 0.0762,-0.0437 0.1364,-0.1044 0.1801,-0.1825 0.0443,-0.0781 0.0786,-0.1896 0.1035,-0.3335z"/>
  <path id="12" class="fil6" d="M165.688 110.805l0.2493 -0.0155c0,0.0719 0.0113,0.1331 0.0334,0.1834 0.0216,0.0504 0.0626,0.0917 0.1218,0.1242 0.0593,0.032 0.1284,0.048 0.2075,0.048 0.11,0 0.1928,-0.0221 0.2479,-0.0659 0.055,-0.0442 0.0827,-0.0964 0.0827,-0.1561 0,-0.0428 -0.0164,-0.0838 -0.0498,-0.1223 -0.0339,-0.0386 -0.1167,-0.0861 -0.2484,-0.1426 -0.1321,-0.0569 -0.2163,-0.0964 -0.253,-0.1194 -0.0617,-0.0377 -0.1077,-0.0819 -0.1393,-0.1331 -0.031,-0.0508 -0.0465,-0.1096 -0.0465,-0.1755 0,-0.1157 0.0456,-0.2149 0.1378,-0.2977 0.0917,-0.0828 0.2201,-0.1242 0.3857,-0.1242 0.1834,0 0.3236,0.0428 0.4196,0.1275 0.0959,0.0851 0.1458,0.197 0.1495,0.3358l-0.2441 0.0165c-0.0037,-0.0885 -0.0348,-0.1581 -0.0936,-0.2093 -0.0588,-0.0518 -0.142,-0.0772 -0.2493,-0.0772 -0.0865,0 -0.1533,0.0198 -0.2013,0.0588 -0.048,0.0395 -0.0715,0.0823 -0.0715,0.1284 0,0.0461 0.0207,0.0866 0.0621,0.1214 0.0273,0.024 0.0983,0.0607 0.2135,0.11 0.191,0.0828 0.3114,0.1482 0.3608,0.1957 0.079,0.0762 0.1185,0.1693 0.1185,0.2785 0,0.0724 -0.0221,0.1439 -0.0668,0.2135 -0.0446,0.0696 -0.1124,0.1256 -0.2041,0.1675 -0.0912,0.0418 -0.199,0.0625 -0.3231,0.0625 -0.1689,0 -0.3128,-0.0418 -0.4314,-0.1251 -0.1185,-0.0837 -0.1745,-0.2197 -0.1679,-0.4078z"/>
  <path id="123" class="fil6" d="M167.658 111.102l-0.0409 0.2041c-0.0598,0.0155 -0.1176,0.0235 -0.1741,0.0235 -0.0987,0 -0.1778,-0.0244 -0.2366,-0.0733 -0.0442,-0.0367 -0.0663,-0.0866 -0.0663,-0.1501 0,-0.032 0.0118,-0.1058 0.0358,-0.222l0.1778 -0.85 -0.1971 0 0.04 -0.1928 0.197 0 0.0758 -0.3598 0.2855 -0.1722 -0.112 0.532 0.2456 0 -0.0414 0.1928 -0.2441 0 -0.1694 0.8091c-0.0211,0.1025 -0.0315,0.1641 -0.0315,0.1844 0,0.0296 0.0085,0.0517 0.0254,0.0677 0.0169,0.0155 0.0447,0.023 0.0833,0.023 0.055,0 0.1044,-0.0051 0.1472,-0.0164z"/>
  <path class="fil6" d="M136.658 115.34l0.4229 -2.0202 0.262 0 0.3405 0.7577c0.1035,0.2319 0.1858,0.4267 0.2465,0.5847 0.0348,0.0917 0.0752,0.2159 0.1213,0.3721 0.025,-0.1703 0.056,-0.3458 0.0936,-0.5268l0.2479 -1.1877 0.2634 0 -0.4214 2.0202 -0.2677 0 -0.5014 -1.167c-0.0893,-0.206 -0.1585,-0.3876 -0.2083,-0.5447 -0.0137,0.1317 -0.0405,0.2926 -0.08,0.484l-0.2559 1.2277 -0.2634 0z"/>
  <path id="1" class="fil6" d="M139.727 114.843l0.2427 0.0249c-0.0348,0.1204 -0.1152,0.2347 -0.2404,0.3433 -0.1255,0.1082 -0.2751,0.1623 -0.4487,0.1623 -0.1082,0 -0.2079,-0.0249 -0.2982,-0.0748 -0.0903,-0.0503 -0.1595,-0.1232 -0.207,-0.2187 -0.047,-0.0955 -0.0705,-0.2041 -0.0705,-0.3264 0,-0.1599 0.0367,-0.3147 0.1105,-0.4652 0.0743,-0.1501 0.1698,-0.2615 0.2874,-0.3349 0.1176,-0.0729 0.2451,-0.1096 0.382,-0.1096 0.1745,0 0.3137,0.0546 0.4181,0.1627 0.1044,0.1087 0.1562,0.2564 0.1562,0.4436 0,0.072 -0.0061,0.1453 -0.0193,0.2206l-1.0776 0c-0.0033,0.0287 -0.0052,0.0541 -0.0052,0.0771 0,0.1369 0.0315,0.2413 0.0941,0.3138 0.063,0.0719 0.1401,0.1082 0.2309,0.1082 0.0856,0 0.1694,-0.0283 0.2521,-0.0842 0.0828,-0.056 0.1473,-0.1369 0.1929,-0.2427zm-0.7248 -0.3622l0.8212 0c0.001,-0.0259 0.0014,-0.0442 0.0014,-0.0551 0,-0.1251 -0.031,-0.221 -0.0936,-0.2874 -0.0625,-0.0667 -0.143,-0.1001 -0.2413,-0.1001 -0.1063,0 -0.2036,0.0371 -0.2911,0.1105 -0.088,0.0734 -0.1534,0.1839 -0.1966,0.3321z"/>
  <path id="12" class="fil6" d="M140.5 115.34l-0.1529 -1.4633 0.2399 0 0.0658 0.6571 0.0264 0.3692c0.0019,0.0278 0.0047,0.0833 0.008,0.167 0.0277,-0.0936 0.0512,-0.1656 0.0705,-0.2159 0.0193,-0.0498 0.0499,-0.1213 0.0922,-0.214l0.3486 -0.7634 0.2718 0 0.048 0.7314c0.0075,0.1115 0.0118,0.2597 0.0136,0.4454 0.0461,-0.1232 0.1209,-0.2939 0.2249,-0.5127l0.3142 -0.6641 0.2493 0 -0.715 1.4633 -0.2592 0 -0.055 -0.8584c-0.0037,-0.0532 -0.0066,-0.1571 -0.0084,-0.3114 -0.0377,0.0983 -0.0824,0.2041 -0.1336,0.318l-0.3871 0.8518 -0.262 0z"/>
  <path id="123" class="fil6" d="M143.076 115.34l0.4214 -2.0202 0.6092 0c0.1462,0 0.2577,0.0108 0.3349,0.0315 0.11,0.0287 0.2041,0.0795 0.2827,0.1524 0.078,0.0729 0.1368,0.1641 0.1763,0.2737 0.0391,0.1092 0.0588,0.2319 0.0588,0.3679 0,0.1627 -0.0244,0.3109 -0.0733,0.4445 -0.0494,0.1335 -0.1134,0.2511 -0.1929,0.3527 -0.0795,0.1016 -0.1627,0.1811 -0.2498,0.2385 -0.0865,0.0574 -0.1895,0.0997 -0.3076,0.1275 -0.0903,0.0212 -0.2008,0.0315 -0.3325,0.0315l-0.7272 0zm0.318 -0.2286l0.3198 0c0.1444,0 0.2723,-0.0136 0.3843,-0.04 0.0701,-0.0164 0.1298,-0.0409 0.1792,-0.0734 0.0654,-0.0409 0.1247,-0.0959 0.1778,-0.1636 0.0701,-0.0904 0.1256,-0.1929 0.1675,-0.3081 0.0418,-0.1153 0.0625,-0.2465 0.0625,-0.3933 0,-0.1636 -0.0282,-0.2892 -0.0851,-0.3772 -0.0569,-0.0875 -0.1298,-0.1458 -0.2178,-0.174 -0.0654,-0.0212 -0.167,-0.032 -0.3048,-0.032l-0.3565 0 -0.3269 1.5616z"/>
  <path id="1234" class="fil6" d="M146.157 114.843l0.2427 0.0249c-0.0348,0.1204 -0.1152,0.2347 -0.2404,0.3433 -0.1255,0.1082 -0.2751,0.1623 -0.4487,0.1623 -0.1082,0 -0.2079,-0.0249 -0.2982,-0.0748 -0.0903,-0.0503 -0.1595,-0.1232 -0.207,-0.2187 -0.047,-0.0955 -0.0705,-0.2041 -0.0705,-0.3264 0,-0.1599 0.0367,-0.3147 0.1105,-0.4652 0.0743,-0.1501 0.1698,-0.2615 0.2874,-0.3349 0.1176,-0.0729 0.2451,-0.1096 0.382,-0.1096 0.1745,0 0.3137,0.0546 0.4181,0.1627 0.1044,0.1087 0.1562,0.2564 0.1562,0.4436 0,0.072 -0.0061,0.1453 -0.0193,0.2206l-1.0776 0c-0.0033,0.0287 -0.0052,0.0541 -0.0052,0.0771 0,0.1369 0.0315,0.2413 0.0941,0.3138 0.063,0.0719 0.1401,0.1082 0.2309,0.1082 0.0856,0 0.1694,-0.0283 0.2521,-0.0842 0.0828,-0.056 0.1473,-0.1369 0.1929,-0.2427zm-0.7248 -0.3622l0.8212 0c0.001,-0.0259 0.0014,-0.0442 0.0014,-0.0551 0,-0.1251 -0.031,-0.221 -0.0936,-0.2874 -0.0625,-0.0667 -0.143,-0.1001 -0.2413,-0.1001 -0.1063,0 -0.2036,0.0371 -0.2911,0.1105 -0.088,0.0734 -0.1534,0.1839 -0.1966,0.3321z"/>
  <polygon id="12345" class="fil6" points="146.632,115.34 147.054,113.32 147.304,113.32 146.882,115.34 "/>
  <path id="123456" class="fil6" d="M147.279 115.34l0.4219 -2.0202 0.2493 0 -0.1613 0.7756c0.0926,-0.0898 0.1792,-0.1543 0.2592,-0.1933 0.0799,-0.0391 0.1622,-0.0588 0.2464,-0.0588 0.1214,0 0.2155,0.032 0.2827,0.0959 0.0673,0.064 0.1007,0.1482 0.1007,0.2531 0,0.0513 -0.0146,0.1458 -0.0442,0.2836l-0.1807 0.8641 -0.2493 0 0.1863 -0.8862c0.0263,-0.1284 0.04,-0.2093 0.04,-0.2422 0,-0.048 -0.0169,-0.087 -0.0499,-0.1171 -0.0329,-0.0306 -0.0809,-0.0457 -0.1434,-0.0457 -0.0899,0 -0.1759,0.0236 -0.2573,0.0711 -0.0819,0.047 -0.1463,0.1119 -0.1924,0.1942 -0.0466,0.0823 -0.0889,0.2145 -0.1275,0.3975l-0.1307 0.6284 -0.2498 0z"/>
  <path id="1234567" class="fil6" d="M149.202 113.603l0.0593 -0.2827 0.2478 0 -0.0588 0.2827 -0.2483 0zm-0.3636 1.7375l0.3057 -1.4633 0.2493 0 -0.3057 1.4633 -0.2493 0z"/>
  <polygon class="fil7 str1" points="15.9562,181.765 47.0961,181.765 47.0961,197.693 15.9562,197.693 "/>
  <path class="fil8" d="M12.1327 196.699c0,-0.1745 0.0447,-0.3448 0.1341,-0.5113 0.0898,-0.166 0.2178,-0.2958 0.3848,-0.3885 0.1665,-0.0927 0.3405,-0.1392 0.5216,-0.1392 0.1792,0 0.3514,0.0456 0.5165,0.1373 0.1655,0.0913 0.2939,0.2197 0.3852,0.3843 0.0917,0.1651 0.1373,0.3373 0.1373,0.5174 0,0.1802 -0.0456,0.3528 -0.1373,0.5174 -0.0913,0.1651 -0.2197,0.2935 -0.3852,0.3852 -0.1651,0.0922 -0.3373,0.1379 -0.5165,0.1379 -0.1811,0 -0.3551,-0.0466 -0.5216,-0.1397 -0.167,-0.0932 -0.295,-0.223 -0.3848,-0.3895 -0.0894,-0.166 -0.1341,-0.3368 -0.1341,-0.5113zm0.1722 0c0,0.1463 0.0376,0.2884 0.1124,0.4266 0.0748,0.1383 0.182,0.2465 0.3208,0.3246 0.1392,0.0781 0.2841,0.1171 0.4351,0.1171 0.1496,0 0.293,-0.0386 0.4304,-0.1152 0.1373,-0.0767 0.2446,-0.1839 0.3212,-0.3218 0.0767,-0.1378 0.1153,-0.2812 0.1153,-0.4313 0,-0.1496 -0.0386,-0.2935 -0.1153,-0.4313 -0.0766,-0.1378 -0.1839,-0.2446 -0.3212,-0.3208 -0.1374,-0.0762 -0.2808,-0.1143 -0.4304,-0.1143 -0.151,0 -0.2959,0.0386 -0.4351,0.1162 -0.1388,0.0776 -0.246,0.1858 -0.3208,0.3245 -0.0748,0.1388 -0.1124,0.2808 -0.1124,0.4257zm1.0362 -0.3335l0.0499 -0.1693c0.1147,0.0277 0.2065,0.0861 0.2747,0.1754 0.0686,0.0899 0.1025,0.1985 0.1025,0.326 0,0.1618 -0.0522,0.293 -0.1571,0.3942 -0.1044,0.1011 -0.2498,0.1519 -0.4351,0.1519 -0.1213,0 -0.2267,-0.023 -0.3165,-0.0691 -0.0894,-0.0461 -0.1571,-0.1115 -0.2023,-0.1962 -0.0456,-0.0851 -0.0682,-0.1825 -0.0682,-0.2916 0,-0.1223 0.0292,-0.2239 0.0875,-0.3048 0.0583,-0.0804 0.1373,-0.1359 0.2375,-0.1651l0.04 0.1641c-0.0682,0.0273 -0.1199,0.0683 -0.1566,0.1219 -0.0363,0.0536 -0.0541,0.1166 -0.0541,0.1895 0,0.1054 0.0376,0.1924 0.1129,0.2611 0.0752,0.0682 0.1834,0.1025 0.3236,0.1025 0.1406,0 0.2469,-0.0324 0.3194,-0.0969 0.0719,-0.0649 0.1081,-0.1486 0.1081,-0.2516 0,-0.0828 -0.024,-0.1552 -0.0719,-0.2178 -0.0475,-0.0626 -0.1124,-0.1039 -0.1943,-0.1242z"/>
  <path id="1" class="fil8" d="M14.1873 193.745l-0.1849 0c0.1454,0.0927 0.2178,0.2291 0.2178,0.4093 0,0.1166 -0.032,0.2238 -0.0964,0.3217 -0.064,0.0978 -0.1538,0.1735 -0.2695,0.2276 -0.1153,0.0537 -0.2474,0.0805 -0.3975,0.0805 -0.1458,0 -0.2784,-0.0245 -0.3974,-0.0729 -0.119,-0.049 -0.2103,-0.1219 -0.2733,-0.2192 -0.0635,-0.0974 -0.0955,-0.2065 -0.0955,-0.3269 0,-0.088 0.0188,-0.1665 0.056,-0.2352 0.0371,-0.0692 0.0856,-0.1251 0.1453,-0.1684l-0.7248 0 0 -0.2465 2.0202 0 0 0.23zm-0.7305 0.7841c0.1877,0 0.3279,-0.0395 0.4205,-0.1185 0.0927,-0.079 0.1393,-0.1722 0.1393,-0.2799 0,-0.1081 -0.0447,-0.2003 -0.1332,-0.2761 -0.0884,-0.0757 -0.2239,-0.1138 -0.4059,-0.1138 -0.2004,0 -0.3471,0.0386 -0.4407,0.1157 -0.0941,0.0772 -0.1407,0.1722 -0.1407,0.2855 0,0.1101 0.0452,0.2023 0.135,0.2761 0.0899,0.0739 0.2319,0.111 0.4257,0.111z"/>
  <polygon id="12" class="fil8" points="13.581,193.221 13.3317,193.221 13.3317,192.459 13.581,192.459 "/>
  <path id="123" class="fil8" d="M14.1873 192.185l-1.4633 0 0 -0.2215 0.2051 0c-0.0715,-0.0461 -0.1294,-0.1073 -0.1727,-0.1835 -0.0437,-0.0762 -0.0658,-0.1632 -0.0658,-0.2605 0,-0.1082 0.0226,-0.1971 0.0677,-0.2663 0.0452,-0.0696 0.1077,-0.1185 0.1886,-0.1467 -0.1707,-0.1162 -0.2563,-0.2667 -0.2563,-0.452 0,-0.1454 0.0404,-0.2569 0.1209,-0.3349 0.0804,-0.0781 0.2041,-0.1172 0.3711,-0.1172l1.0047 0 0 0.2465 -0.9219 0c-0.0993,0 -0.1708,0.008 -0.2145,0.024 -0.0433,0.0165 -0.0786,0.0456 -0.1054,0.0875 -0.0263,0.0423 -0.0399,0.0922 -0.0399,0.1491 0,0.103 0.0343,0.1881 0.103,0.2563 0.0682,0.0678 0.1778,0.1021 0.3283,0.1021l0.8504 0 0 0.2479 -0.9506 0c-0.1105,0 -0.1933,0.0202 -0.2484,0.0607 -0.055,0.0404 -0.0827,0.1063 -0.0827,0.1985 0,0.0696 0.0183,0.134 0.0555,0.1933 0.0366,0.0593 0.0903,0.1025 0.1608,0.1289 0.071,0.0268 0.1731,0.04 0.3062,0.04l0.7592 0 0 0.2478z"/>
  <path id="1234" class="fil8" d="M14.0067 188.879c0.0781,0.0922 0.1331,0.1806 0.1655,0.2653 0.032,0.0851 0.048,0.1764 0.048,0.2737 0,0.1609 -0.039,0.2841 -0.1176,0.3707 -0.0785,0.0861 -0.1792,0.1293 -0.301,0.1293 -0.072,0 -0.1373,-0.016 -0.1966,-0.0489 -0.0593,-0.0324 -0.1068,-0.0752 -0.1425,-0.1279 -0.0358,-0.0532 -0.0631,-0.1124 -0.0814,-0.1788 -0.0127,-0.0484 -0.0254,-0.1218 -0.0372,-0.2201 -0.024,-0.2004 -0.0522,-0.3481 -0.0856,-0.4426 -0.0338,-0.001 -0.0555,-0.0014 -0.0644,-0.0014 -0.1011,0 -0.1726,0.0235 -0.2136,0.0705 -0.0564,0.0631 -0.0842,0.1576 -0.0842,0.2823 0,0.1166 0.0203,0.2027 0.0612,0.2587 0.0409,0.0555 0.1133,0.0964 0.2173,0.1232l-0.0334 0.2422c-0.1035,-0.0221 -0.1877,-0.0583 -0.2512,-0.1086 -0.0639,-0.0504 -0.1133,-0.1237 -0.1477,-0.2192 -0.0343,-0.0955 -0.0517,-0.206 -0.0517,-0.3321 0,-0.1251 0.015,-0.2262 0.0442,-0.3043 0.0296,-0.0781 0.0663,-0.1355 0.111,-0.1726 0.0447,-0.0367 0.1007,-0.0621 0.1689,-0.0772 0.0423,-0.008 0.1185,-0.0122 0.2286,-0.0122l0.3306 0c0.231,0 0.3768,-0.0052 0.4375,-0.016 0.0611,-0.0104 0.1199,-0.0315 0.1759,-0.0626l0 0.2592c-0.0513,0.0254 -0.1115,0.0423 -0.1806,0.0494zm-0.5541 0.0207c0.0371,0.0903 0.0682,0.2253 0.0941,0.405 0.0145,0.102 0.031,0.1745 0.0493,0.2163 0.0184,0.0424 0.0452,0.0753 0.081,0.0979 0.0352,0.023 0.0743,0.0348 0.1175,0.0348 0.0664,0 0.1214,-0.0254 0.1656,-0.0753 0.0438,-0.0498 0.0659,-0.1232 0.0659,-0.2196 0,-0.0955 -0.0207,-0.1807 -0.0626,-0.255 -0.0419,-0.0743 -0.0992,-0.1293 -0.1717,-0.1641 -0.056,-0.0268 -0.1387,-0.04 -0.2479,-0.04l-0.0912 0z"/>
  <path id="12345" class="fil8" d="M14.748 188.264l-2.024 0 0 -0.2257 0.19 0c-0.0743,-0.0532 -0.1303,-0.1134 -0.1674,-0.1807 -0.0372,-0.0668 -0.056,-0.1481 -0.056,-0.2436 0,-0.1251 0.0324,-0.2352 0.0964,-0.3307 0.0645,-0.0959 0.1552,-0.1679 0.2724,-0.2163 0.1171,-0.049 0.2455,-0.0734 0.3852,-0.0734 0.1496,0 0.2846,0.0268 0.4045,0.0809 0.1199,0.0536 0.2117,0.1317 0.2756,0.2342 0.0635,0.1026 0.0955,0.2103 0.0955,0.3232 0,0.0827 -0.0174,0.1566 -0.0522,0.2224 -0.0348,0.0659 -0.079,0.1195 -0.1322,0.1619l0.7122 0 0 0.2478zm-1.2841 -0.2243c0.1881,0 0.3274,-0.0381 0.4177,-0.1143 0.0898,-0.0762 0.135,-0.1689 0.135,-0.2771 0,-0.11 -0.0466,-0.2046 -0.1402,-0.2831 -0.0931,-0.0786 -0.2375,-0.1181 -0.4332,-0.1181 -0.1868,0 -0.326,0.0386 -0.4191,0.1152 -0.0927,0.0767 -0.1392,0.1684 -0.1392,0.2747 0,0.1059 0.0493,0.1995 0.1481,0.2808 0.0988,0.0814 0.2427,0.1219 0.4309,0.1219z"/>
  <path id="123456" class="fil8" d="M13.7503 186.794l-0.0385 -0.2451c0.0983,-0.0136 0.1735,-0.0522 0.2262,-0.1152 0.0522,-0.0626 0.0786,-0.1505 0.0786,-0.2639 0,-0.1138 -0.0236,-0.1985 -0.0697,-0.2535 -0.0465,-0.0551 -0.1011,-0.0828 -0.1632,-0.0828 -0.0564,0 -0.1002,0.0245 -0.1326,0.0734 -0.0221,0.0338 -0.0499,0.1185 -0.0837,0.2535 -0.0461,0.1816 -0.0857,0.3081 -0.1195,0.3782 -0.0334,0.0701 -0.08,0.1237 -0.1392,0.1599 -0.0593,0.0362 -0.1247,0.0546 -0.1962,0.0546 -0.0654,0 -0.1256,-0.0151 -0.1811,-0.0452 -0.056,-0.0296 -0.102,-0.0705 -0.1387,-0.1218 -0.0283,-0.0386 -0.0527,-0.0913 -0.0725,-0.1576 -0.0197,-0.0668 -0.0296,-0.1383 -0.0296,-0.2145 0,-0.1147 0.0169,-0.2154 0.0499,-0.3024 0.0329,-0.087 0.0776,-0.151 0.134,-0.1924 0.0569,-0.0414 0.1322,-0.0696 0.2267,-0.0851l0.0334 0.2422c-0.0752,0.0113 -0.134,0.0433 -0.1764,0.096 -0.0423,0.0526 -0.0635,0.1274 -0.0635,0.2238 0,0.1139 0.0188,0.1952 0.0565,0.2437 0.0376,0.0489 0.0818,0.0734 0.1321,0.0734 0.0325,0 0.0612,-0.0104 0.0871,-0.0306 0.0268,-0.0202 0.0484,-0.0517 0.0663,-0.095 0.0089,-0.0249 0.0301,-0.0979 0.063,-0.2192 0.0471,-0.1755 0.0852,-0.2977 0.1153,-0.3669 0.0296,-0.0696 0.0733,-0.1242 0.1302,-0.1637 0.057,-0.0395 0.1275,-0.0592 0.2122,-0.0592 0.0828,0 0.1604,0.0244 0.2338,0.0724 0.0729,0.0484 0.1293,0.1181 0.1693,0.2088 0.04,0.0908 0.0597,0.1938 0.0597,0.3086 0,0.1905 -0.0395,0.3354 -0.1185,0.4351 -0.079,0.0997 -0.1961,0.1632 -0.3514,0.1905z"/>
  <polygon id="1234567" class="fil8" points="14.1873,185.213 13.9046,185.213 13.9046,184.931 14.1873,184.931 "/>
  <path id="12345678" class="fil8" d="M13.6511 183.545l0.032 -0.2437c0.1679,0.0264 0.2996,0.0946 0.3946,0.2047 0.095,0.1095 0.1425,0.2445 0.1425,0.4045 0,0.1999 -0.0654,0.3612 -0.1961,0.4826 -0.1308,0.1218 -0.3185,0.1829 -0.563,0.1829 -0.1581,0 -0.2964,-0.0263 -0.4149,-0.0785 -0.1185,-0.0527 -0.2074,-0.1322 -0.2667,-0.2394 -0.0593,-0.1068 -0.0889,-0.2235 -0.0889,-0.349 0,-0.159 0.0404,-0.2893 0.1209,-0.39 0.0804,-0.1011 0.1942,-0.166 0.3424,-0.1947l0.0372 0.2413c-0.0983,0.023 -0.1722,0.0635 -0.222,0.1218 -0.0494,0.0583 -0.0744,0.1289 -0.0744,0.2117 0,0.1251 0.0447,0.2267 0.1346,0.3048 0.0893,0.0781 0.2309,0.1171 0.4247,0.1171 0.1966,0 0.3396,-0.0376 0.429,-0.1134 0.0889,-0.0752 0.1336,-0.1735 0.1336,-0.2949 0,-0.0973 -0.0301,-0.1783 -0.0899,-0.2436 -0.0597,-0.0654 -0.1514,-0.1068 -0.2756,-0.1242z"/>
  <path id="123456789" class="fil8" d="M13.4554 183.181c-0.2709,0 -0.4718,-0.0753 -0.6021,-0.2262 -0.1081,-0.1256 -0.1627,-0.279 -0.1627,-0.4601 0,-0.2013 0.0658,-0.3659 0.198,-0.4934 0.1317,-0.1279 0.3138,-0.1914 0.5461,-0.1914 0.1886,0 0.3368,0.0282 0.4445,0.0846 0.1082,0.0565 0.1919,0.1388 0.2517,0.2465 0.0597,0.1082 0.0893,0.2258 0.0893,0.3537 0,0.2046 -0.0654,0.3702 -0.1971,0.4967 -0.1312,0.1266 -0.3203,0.1896 -0.5677,0.1896zm0 -0.2549c0.1877,0 0.3279,-0.041 0.421,-0.1228 0.0936,-0.0819 0.1402,-0.1849 0.1402,-0.3086 0,-0.1232 -0.0471,-0.2257 -0.1407,-0.3076 -0.0936,-0.0814 -0.2366,-0.1223 -0.4285,-0.1223 -0.1811,0 -0.3184,0.0409 -0.4116,0.1233 -0.0931,0.0823 -0.1397,0.1843 -0.1397,0.3066 0,0.1237 0.0466,0.2267 0.1393,0.3086 0.0926,0.0818 0.2328,0.1228 0.42,0.1228z"/>
  <path id="12345678910" class="fil8" d="M14.1873 181.519l-1.4633 0 0 -0.2215 0.2051 0c-0.0715,-0.0461 -0.1294,-0.1073 -0.1727,-0.1835 -0.0437,-0.0762 -0.0658,-0.1632 -0.0658,-0.2605 0,-0.1082 0.0226,-0.1971 0.0677,-0.2663 0.0452,-0.0696 0.1077,-0.1185 0.1886,-0.1467 -0.1707,-0.1162 -0.2563,-0.2667 -0.2563,-0.452 0,-0.1454 0.0404,-0.2569 0.1209,-0.3349 0.0804,-0.0781 0.2041,-0.1172 0.3711,-0.1172l1.0047 0 0 0.2465 -0.9219 0c-0.0993,0 -0.1708,0.008 -0.2145,0.024 -0.0433,0.0165 -0.0786,0.0456 -0.1054,0.0875 -0.0263,0.0423 -0.0399,0.0922 -0.0399,0.1491 0,0.103 0.0343,0.1881 0.103,0.2563 0.0682,0.0678 0.1778,0.1021 0.3283,0.1021l0.8504 0 0 0.2479 -0.9506 0c-0.1105,0 -0.1933,0.0202 -0.2484,0.0607 -0.055,0.0404 -0.0827,0.1063 -0.0827,0.1985 0,0.0696 0.0183,0.134 0.0555,0.1933 0.0366,0.0593 0.0903,0.1025 0.1608,0.1289 0.071,0.0268 0.1731,0.04 0.3062,0.04l0.7592 0 0 0.2478z"/>
  <rect class="fil9 str2" x="10" y="10" width="209.419" height="190"/>
  <g id="_184265192">
   <g>
    <polygon id="_184277480" class="fil10 str3" points="17.3809,187.807 23.0518,187.807 23.0518,188.799 17.3809,188.799 "/>
    <polygon id="_184255424" class="fil11 str3" points="23.0518,187.807 28.7226,187.807 28.7226,188.799 23.0518,188.799 "/>
    <polygon id="_184257824" class="fil10 str3" points="28.7226,187.807 34.3934,187.807 34.3934,188.799 28.7226,188.799 "/>
    <polygon id="_184259168" class="fil11 str3" points="34.3948,187.807 40.0656,187.807 40.0656,188.799 34.3948,188.799 "/>
    <polygon id="_184259120" class="fil10 str3" points="40.0657,187.807 45.7366,187.807 45.7366,188.799 40.0657,188.799 "/>
    <polygon id="_184265504" class="fil11 str3" points="35.5406,190.797 44.6106,190.797 44.6106,191.788 35.5406,191.788 "/>
    <polygon id="_184254752" class="fil10 str3" points="26.4707,190.797 35.5406,190.797 35.5406,191.788 26.4707,191.788 "/>
    <polygon id="_184260968" class="fil11 str3" points="17.4008,190.797 26.4707,190.797 26.4707,191.788 17.4008,191.788 "/>
   </g>
   <path id="_184263776" class="fil12" d="M27.6273 183.928l0.5686 -0.2775 0.057 0 0 1.9726c0,0.1306 0.0053,0.2123 0.0159,0.2446 0.0112,0.0318 0.0341,0.0565 0.0682,0.0741 0.0347,0.0171 0.1047,0.027 0.2105,0.0294l0 0.0635 -0.879 0 0 -0.0635c0.1105,-0.0024 0.1817,-0.0118 0.214,-0.0288 0.0318,-0.0165 0.0541,-0.0388 0.067,-0.067 0.0124,-0.0283 0.0189,-0.1123 0.0189,-0.2523l0 -1.2612c0,-0.1699 -0.0059,-0.2787 -0.0171,-0.3269 -0.0082,-0.037 -0.0229,-0.0641 -0.0441,-0.0811 -0.0212,-0.0171 -0.0464,-0.0259 -0.0764,-0.0259 -0.0424,0 -0.1017,0.0177 -0.1776,0.0535l-0.0259 -0.0535z"/>
   <path id="_1842637761" class="fil12" d="M29.1055 184.881c0,-0.2663 0.04,-0.4956 0.1205,-0.6879 0.0806,-0.1923 0.187,-0.3357 0.3205,-0.4298 0.1034,-0.0747 0.2099,-0.1123 0.3204,-0.1123 0.1787,0 0.3399,0.0917 0.4821,0.274 0.1782,0.2264 0.267,0.5327 0.267,0.9202 0,0.271 -0.0388,0.5009 -0.117,0.6902 -0.0782,0.1899 -0.1776,0.3275 -0.2987,0.4128 -0.1211,0.0858 -0.2381,0.1282 -0.351,0.1282 -0.2223,0 -0.4081,-0.1312 -0.5562,-0.3946 -0.1253,-0.2216 -0.1876,-0.4886 -0.1876,-0.8008zm0.3375 0.0429c0,0.3217 0.0394,0.5845 0.1188,0.7873 0.0652,0.1711 0.1634,0.257 0.2928,0.257 0.0623,0 0.1264,-0.0283 0.1928,-0.0835 0.067,-0.0559 0.1176,-0.1494 0.1517,-0.2799 0.0529,-0.1975 0.0794,-0.4762 0.0794,-0.8355 0,-0.2663 -0.0277,-0.4886 -0.0829,-0.6667 -0.0412,-0.1323 -0.0947,-0.2258 -0.1599,-0.2811 -0.0471,-0.0376 -0.1041,-0.0564 -0.1706,-0.0564 -0.0782,0 -0.1475,0.0347 -0.2087,0.1046 -0.0823,0.0953 -0.1387,0.2452 -0.1687,0.4498 -0.03,0.2046 -0.0447,0.4057 -0.0447,0.6044z"/>
   <path id="_18426377612" class="fil12" d="M32.2006 183.585l0 1.5693 0.4016 -0.3651c0.0852,-0.0782 0.1346,-0.1276 0.1481,-0.1482 0.0095,-0.0141 0.0136,-0.0276 0.0136,-0.0411 0,-0.0236 -0.0094,-0.043 -0.0283,-0.06 -0.0188,-0.0165 -0.0499,-0.0259 -0.094,-0.0282l0 -0.0553 0.6855 0 0 0.0553c-0.094,0.0023 -0.1722,0.0164 -0.2346,0.0429 -0.0629,0.0264 -0.1317,0.0735 -0.2063,0.1417l-0.4046 0.3733 0.4046 0.5116c0.1129,0.1417 0.1887,0.231 0.2275,0.2693 0.0553,0.0535 0.1035,0.0887 0.1446,0.1046 0.0289,0.0118 0.0788,0.0177 0.15,0.0177l0 0.0617 -0.7667 0 0 -0.0617c0.0441,-0.0012 0.0735,-0.0083 0.0888,-0.02 0.0158,-0.0124 0.0235,-0.0288 0.0235,-0.0512 0,-0.0264 -0.023,-0.0688 -0.0688,-0.127l-0.4845 -0.6185 0 0.5233c0,0.1023 0.0076,0.1699 0.0218,0.2016 0.0141,0.0324 0.0346,0.0553 0.0611,0.0688 0.0265,0.0141 0.0841,0.0218 0.1723,0.023l0 0.0617 -0.8026 0 0 -0.0617c0.0805,0 0.1405,-0.01 0.1805,-0.0294 0.0241,-0.013 0.0429,-0.0324 0.0553,-0.0588 0.017,-0.0377 0.0258,-0.1035 0.0258,-0.1964l0 -1.4364c0,-0.1829 -0.0041,-0.2946 -0.0117,-0.3352 -0.0082,-0.0405 -0.0218,-0.0687 -0.04,-0.0846 -0.0182,-0.0153 -0.0423,-0.023 -0.0723,-0.023 -0.0241,0 -0.06,0.0095 -0.1082,0.0294l-0.0294 -0.0605 0.4686 -0.1929 0.0788 0z"/>
   <path id="_184263776123" class="fil12" d="M33.9663 184.747c0.1152,-0.1153 0.1828,-0.1811 0.2034,-0.1982 0.0517,-0.0441 0.1076,-0.0776 0.167,-0.1017 0.06,-0.0241 0.1187,-0.0365 0.1775,-0.0365 0.0988,0 0.1841,0.0289 0.2552,0.0865 0.0712,0.057 0.1188,0.1405 0.1429,0.2499 0.1182,-0.1382 0.2181,-0.2288 0.2999,-0.2717 0.0811,-0.0429 0.1652,-0.0647 0.251,-0.0647 0.0841,0 0.1582,0.0218 0.2234,0.0647 0.0647,0.0429 0.1159,0.1135 0.1541,0.2111 0.0253,0.0664 0.0376,0.1711 0.0376,0.3134l0 0.6791c0,0.0988 0.0077,0.1664 0.0224,0.2028 0.0117,0.0253 0.0329,0.0471 0.0641,0.0647 0.0311,0.0177 0.0811,0.0271 0.1517,0.0271l0 0.0617 -0.7791 0 0 -0.0617 0.0329 0c0.0676,0 0.1206,-0.0136 0.1588,-0.04 0.0264,-0.0182 0.0452,-0.0476 0.0564,-0.0876 0.0047,-0.0194 0.0071,-0.0753 0.0071,-0.167l0 -0.6791c0,-0.1288 -0.0153,-0.2193 -0.0465,-0.2722 -0.0447,-0.0735 -0.1164,-0.11 -0.2152,-0.11 -0.0611,0 -0.1223,0.0153 -0.1834,0.0453 -0.0618,0.0306 -0.1358,0.087 -0.2234,0.1699l-0.0036 0.0188 0.0036 0.0741 0 0.7532c0,0.1076 0.0064,0.1746 0.0182,0.2011 0.0123,0.0264 0.0347,0.0488 0.0682,0.0664 0.0329,0.0177 0.0899,0.0271 0.1705,0.0271l0 0.0617 -0.7979 0 0 -0.0617c0.0876,0 0.1476,-0.0106 0.1805,-0.0312 0.0324,-0.0206 0.0553,-0.0517 0.0676,-0.0929 0.0059,-0.02 0.0089,-0.0764 0.0089,-0.1705l0 -0.6791c0,-0.1288 -0.0188,-0.2211 -0.0571,-0.2769 -0.0505,-0.0735 -0.1211,-0.1106 -0.2116,-0.1106 -0.0624,0 -0.1235,0.0165 -0.1847,0.05 -0.0952,0.0506 -0.1687,0.1076 -0.2204,0.1705l0 0.8461c0,0.1029 0.0076,0.1705 0.0217,0.2011 0.0141,0.0311 0.0359,0.0547 0.0635,0.0699 0.0282,0.0153 0.0853,0.0236 0.1717,0.0236l0 0.0617 -0.7802 0 0 -0.0617c0.0723,0 0.1229,-0.0083 0.1517,-0.0236 0.0282,-0.0152 0.0505,-0.0399 0.0652,-0.074 0.0147,-0.0341 0.0224,-0.0994 0.0224,-0.197l0 -0.6033c0,-0.1734 -0.0053,-0.2851 -0.0153,-0.3357 -0.0082,-0.0382 -0.0212,-0.0641 -0.0382,-0.0782 -0.0171,-0.0147 -0.0406,-0.0217 -0.0706,-0.0217 -0.0323,0 -0.0705,0.0088 -0.1152,0.0258l-0.0259 -0.0623 0.4751 -0.1929 0.0741 0 0 0.3364z"/>
   <path id="_184284128" class="fil12" d="M29.6289 193.348l0 0.0641c-0.1511,0.0147 -0.2751,0.0447 -0.371,0.0905 -0.0958,0.0453 -0.1905,0.1141 -0.284,0.2076 -0.0934,0.0929 -0.1711,0.1964 -0.2328,0.3104 -0.0611,0.1147 -0.1129,0.2505 -0.154,0.4075 0.1652,-0.1135 0.331,-0.1705 0.498,-0.1705 0.1593,0 0.2981,0.0647 0.4151,0.1928 0.117,0.1288 0.1758,0.294 0.1758,0.4963 0,0.1952 -0.0594,0.3733 -0.1776,0.5339 -0.1423,0.1952 -0.331,0.2928 -0.565,0.2928 -0.1599,0 -0.2952,-0.053 -0.4069,-0.1582 -0.2181,-0.2058 -0.3269,-0.4721 -0.3269,-0.7996 0,-0.2088 0.0417,-0.4075 0.1258,-0.5957 0.0835,-0.1887 0.2035,-0.3557 0.3593,-0.5015 0.1552,-0.1458 0.3045,-0.244 0.4468,-0.2946 0.1423,-0.0505 0.2752,-0.0758 0.3981,-0.0758l0.0993 0zm-1.0712 1.2059c-0.0206,0.1552 -0.0312,0.2805 -0.0312,0.3757 0,0.11 0.0206,0.2299 0.0612,0.3593 0.0411,0.1287 0.1017,0.2316 0.1822,0.3075 0.0582,0.0535 0.1294,0.0805 0.2135,0.0805 0.0999,0 0.1893,-0.047 0.2675,-0.1411 0.0788,-0.0941 0.1182,-0.2287 0.1182,-0.4033 0,-0.1964 -0.0388,-0.3663 -0.117,-0.5098 -0.0782,-0.1435 -0.1888,-0.2152 -0.3328,-0.2152 -0.0435,0 -0.09,0.0094 -0.14,0.0276 -0.0499,0.0183 -0.124,0.0583 -0.2216,0.1188z"/>
   <path id="_1842841281" class="fil12" d="M31.2724 194.444c0.1152,-0.1153 0.1828,-0.1811 0.2034,-0.1982 0.0517,-0.0441 0.1076,-0.0776 0.167,-0.1017 0.06,-0.0241 0.1187,-0.0365 0.1775,-0.0365 0.0988,0 0.1841,0.0289 0.2552,0.0865 0.0712,0.057 0.1188,0.1405 0.1429,0.2499 0.1182,-0.1382 0.2181,-0.2288 0.2999,-0.2717 0.0811,-0.0429 0.1652,-0.0647 0.251,-0.0647 0.0841,0 0.1582,0.0218 0.2234,0.0647 0.0647,0.0429 0.1159,0.1135 0.1541,0.2111 0.0253,0.0664 0.0376,0.1711 0.0376,0.3134l0 0.6791c0,0.0988 0.0077,0.1664 0.0224,0.2028 0.0117,0.0253 0.0329,0.0471 0.0641,0.0647 0.0311,0.0177 0.0811,0.0271 0.1517,0.0271l0 0.0617 -0.7791 0 0 -0.0617 0.0329 0c0.0676,0 0.1206,-0.0136 0.1588,-0.04 0.0264,-0.0182 0.0452,-0.0476 0.0564,-0.0876 0.0047,-0.0194 0.0071,-0.0753 0.0071,-0.167l0 -0.6791c0,-0.1288 -0.0153,-0.2193 -0.0465,-0.2722 -0.0447,-0.0735 -0.1164,-0.11 -0.2152,-0.11 -0.0611,0 -0.1223,0.0153 -0.1834,0.0453 -0.0618,0.0306 -0.1358,0.087 -0.2234,0.1699l-0.0036 0.0188 0.0036 0.0741 0 0.7532c0,0.1076 0.0064,0.1746 0.0182,0.2011 0.0123,0.0264 0.0347,0.0488 0.0682,0.0664 0.0329,0.0177 0.0899,0.0271 0.1705,0.0271l0 0.0617 -0.7979 0 0 -0.0617c0.0876,0 0.1476,-0.0106 0.1805,-0.0312 0.0324,-0.0206 0.0553,-0.0517 0.0676,-0.0929 0.0059,-0.02 0.0089,-0.0764 0.0089,-0.1705l0 -0.6791c0,-0.1288 -0.0188,-0.2211 -0.0571,-0.2769 -0.0505,-0.0735 -0.1211,-0.1106 -0.2116,-0.1106 -0.0624,0 -0.1235,0.0165 -0.1847,0.05 -0.0952,0.0506 -0.1687,0.1076 -0.2204,0.1705l0 0.8461c0,0.1029 0.0076,0.1705 0.0217,0.2011 0.0141,0.0311 0.0359,0.0547 0.0635,0.0699 0.0282,0.0153 0.0853,0.0236 0.1717,0.0236l0 0.0617 -0.7802 0 0 -0.0617c0.0723,0 0.1229,-0.0083 0.1517,-0.0236 0.0282,-0.0152 0.0505,-0.0399 0.0652,-0.074 0.0147,-0.0341 0.0224,-0.0994 0.0224,-0.197l0 -0.6033c0,-0.1734 -0.0053,-0.2851 -0.0153,-0.3357 -0.0082,-0.0382 -0.0212,-0.0641 -0.0382,-0.0782 -0.0171,-0.0147 -0.0406,-0.0217 -0.0706,-0.0217 -0.0323,0 -0.0705,0.0088 -0.1152,0.0258l-0.0259 -0.0623 0.4751 -0.1929 0.0741 0 0 0.3364z"/>
   <path id="_18428412812" class="fil12" d="M33.9493 193.283c0.0482,0 0.0894,0.0171 0.1235,0.0506 0.0335,0.0341 0.0506,0.0753 0.0506,0.1235 0,0.0482 -0.0171,0.0893 -0.0506,0.124 -0.0341,0.0341 -0.0753,0.0518 -0.1235,0.0518 -0.0482,0 -0.0893,-0.0177 -0.124,-0.0518 -0.0341,-0.0347 -0.0518,-0.0758 -0.0518,-0.124 0,-0.0482 0.0171,-0.0894 0.0512,-0.1235 0.0335,-0.0335 0.0752,-0.0506 0.1246,-0.0506zm0.1429 0.8249l0 1.2683c0,0.0988 0.0071,0.164 0.0218,0.197 0.0141,0.0329 0.0352,0.057 0.0635,0.0735 0.0282,0.0158 0.0799,0.0241 0.1546,0.0241l0 0.0617 -0.7667 0 0 -0.0617c0.077,0 0.1288,-0.0077 0.1546,-0.023 0.0265,-0.0147 0.0476,-0.0394 0.0629,-0.0741 0.0159,-0.0341 0.0236,-0.0999 0.0236,-0.1975l0 -0.6086c0,-0.1711 -0.0053,-0.2816 -0.0153,-0.3322 -0.0083,-0.037 -0.0212,-0.0623 -0.0382,-0.0764 -0.0171,-0.0147 -0.0406,-0.0217 -0.0706,-0.0217 -0.0323,0 -0.0711,0.0088 -0.117,0.0258l-0.0241 -0.0623 0.4751 -0.1929 0.0758 0z"/>
  </g>
 </g>
</svg>